<svg width="51" height="46" viewBox="0 0 51 46" fill="none" xmlns="http://www.w3.org/2000/svg">
<circle cx="34" cy="29" r="17" fill="#2AD590"/>
<path d="M5.21884 18.7917H8.54167C10.4286 18.7917 11.9583 20.3214 11.9583 22.2083V23.9167C11.9583 25.8036 13.488 27.3333 15.375 27.3333C17.262 27.3333 18.7917 28.863 18.7917 30.75V35.7812M13.6667 6.72318V9.39583C13.6667 11.7545 15.5788 13.6667 17.9375 13.6667H18.7917C20.6786 13.6667 22.2083 15.1964 22.2083 17.0833C22.2083 18.9703 23.738 20.5 25.625 20.5C27.512 20.5 29.0417 18.9703 29.0417 17.0833C29.0417 15.1964 30.5714 13.6667 32.4583 13.6667L34.2768 13.6667M25.625 35.0001V30.75C25.625 28.863 27.1547 27.3333 29.0417 27.3333H34.2768M35.875 20.5C35.875 28.9914 28.9914 35.875 20.5 35.875C12.0086 35.875 5.125 28.9914 5.125 20.5C5.125 12.0086 12.0086 5.125 20.5 5.125C28.9914 5.125 35.875 12.0086 35.875 20.5Z" stroke="black" stroke-width="2" stroke-linecap="round" stroke-linejoin="round"/>
</svg>
