<svg width="32" height="33" viewBox="0 0 32 33" fill="none" xmlns="http://www.w3.org/2000/svg">
<g clip-path="url(#clip0_9581_549)">
<path d="M22.3599 0.46875H9.26514C4.14831 0.46875 0 4.61706 0 9.73389V22.8286C0 27.9454 4.14831 32.0938 9.26514 32.0938H22.3599C27.4767 32.0938 31.625 27.9454 31.625 22.8286V9.73389C31.625 4.61706 27.4767 0.46875 22.3599 0.46875ZM9.53568 21.7168L12.6438 16.288L9.53568 10.8457H12.3992L16.0639 16.1522V16.4097L12.3992 21.7162H9.53568V21.7168ZM22.0899 16.4103L18.4253 21.7168H15.5617L18.6699 16.288L15.5617 10.8457H18.4253L22.0899 16.1522V16.4097V16.4103Z" fill="#4C3DFF"/>
</g>
<defs>
<clipPath id="clip0_9581_549">
<rect width="31.625" height="31.625" fill="white" transform="translate(0 0.46875)"/>
</clipPath>
</defs>
</svg>
