<svg width="34" height="34" viewBox="0 0 34 34" fill="none" xmlns="http://www.w3.org/2000/svg">
<path fill-rule="evenodd" clip-rule="evenodd" d="M16.9999 30.5999C24.511 30.5999 30.5999 24.511 30.5999 16.9999C30.5999 9.48883 24.511 3.3999 16.9999 3.3999C9.48883 3.3999 3.3999 9.48883 3.3999 16.9999C3.3999 24.511 9.48883 30.5999 16.9999 30.5999ZM23.302 14.802C23.9659 14.1381 23.9659 13.0617 23.302 12.3978C22.6381 11.7339 21.5617 11.7339 20.8978 12.3978L15.2999 17.9957L13.102 15.7978C12.4381 15.1339 11.3617 15.1339 10.6978 15.7978C10.0339 16.4617 10.0339 17.5381 10.6978 18.202L14.0978 21.602C14.7617 22.2659 15.8381 22.2659 16.502 21.602L23.302 14.802Z" fill="#5EABDE"/>
</svg>
