<svg width="34" height="34" viewBox="0 0 34 34" fill="none" xmlns="http://www.w3.org/2000/svg">
<path fill-rule="evenodd" clip-rule="evenodd" d="M17 30.6C24.5111 30.6 30.6 24.5111 30.6 17C30.6 9.48895 24.5111 3.40002 17 3.40002C9.48892 3.40002 3.39999 9.48895 3.39999 17C3.39999 24.5111 9.48892 30.6 17 30.6ZM23.3021 14.8021C23.966 14.1382 23.966 13.0618 23.3021 12.3979C22.6382 11.7341 21.5618 11.7341 20.8979 12.3979L15.3 17.9959L13.1021 15.7979C12.4382 15.1341 11.3618 15.1341 10.6979 15.7979C10.034 16.4618 10.034 17.5382 10.6979 18.2021L14.0979 21.6021C14.7618 22.266 15.8382 22.266 16.5021 21.6021L23.3021 14.8021Z" fill="#2AD590"/>
</svg>
