<svg width="21" height="18" viewBox="0 0 21 18" fill="none" xmlns="http://www.w3.org/2000/svg">
<path d="M17.6038 12.4282C17.3246 12.149 16.969 11.9587 16.5818 11.8812L14.1943 11.4037C12.8859 11.1421 11.5277 11.324 10.3343 11.9207L10.0169 12.0793C8.8235 12.676 7.46526 12.8579 6.15691 12.5963L4.22516 12.2099C3.56944 12.0788 2.89157 12.284 2.41872 12.7569M6.17558 1H14.1756L13.1756 2V7.17157C13.1756 7.70201 13.3863 8.21071 13.7614 8.58579L18.7614 13.5858C20.0213 14.8457 19.129 17 17.3472 17H3.00401C1.2222 17 0.329866 14.8457 1.5898 13.5858L6.5898 8.58579C6.96487 8.21071 7.17558 7.70201 7.17558 7.17157V2L6.17558 1Z" stroke="#5EABDE" stroke-width="2" stroke-linecap="round" stroke-linejoin="round"/>
</svg>
