<svg xmlns="http://www.w3.org/2000/svg" width="230" height="48" viewBox="0 0 230 48"
     fill="none">
    <path
            d="M0.391602 23.9751C0.391602 12.6731 0.391602 7.02213 3.90267 3.51107C7.41374 0 13.0647 0 24.3667 0C35.6687 0 41.3196 0 44.8307 3.51107C48.3418 7.02213 48.3418 12.6731 48.3418 23.9751C48.3418 35.2771 48.3418 40.928 44.8307 44.4391C41.3196 47.9502 35.6687 47.9502 24.3667 47.9502C13.0647 47.9502 7.41374 47.9502 3.90267 44.4391C0.391602 40.928 0.391602 35.2771 0.391602 23.9751Z"
            fill="#232B36"/>
    <path
            d="M29.1611 31.1689C29.8232 31.1689 30.3719 31.7109 30.2404 32.3598C30.008 33.5058 29.4434 34.568 28.6043 35.4071C27.4803 36.5312 25.9557 37.1627 24.3661 37.1627C22.7764 37.1627 21.2519 36.5312 20.1279 35.4071C19.2887 34.568 18.7241 33.5058 18.4918 32.3598C18.3602 31.7109 18.909 31.1689 19.571 31.1689H29.1611Z"
            fill="#2DF8BB"/>
    <path
            d="M31.6801 21.3103C31.0406 21.4816 30.649 22.1506 30.9732 22.7278C31.3145 23.3354 31.7866 23.8656 32.3609 24.2771C33.2626 24.9232 34.3604 25.2368 35.4675 25.1642C36.5744 25.0917 37.622 24.6376 38.4316 23.8793C39.2414 23.1209 39.763 22.1052 39.9078 21.0054C40.0526 19.9055 39.8117 18.7895 39.2258 17.8474C38.64 16.9054 37.7456 16.1956 36.6951 15.839C35.6447 15.4823 34.5031 15.501 33.4648 15.8918C32.8036 16.1407 32.2105 16.5306 31.7235 17.0291C31.2609 17.5027 31.466 18.2504 32.0394 18.5814L32.6475 18.9325C33.5724 19.4665 33.39 20.8522 32.3584 21.1286L31.6801 21.3103Z"
            fill="#2DF8BB"/>
    <path
            d="M17.0534 21.3103C17.6929 21.4816 18.0845 22.1506 17.7603 22.7278C17.419 23.3354 16.9469 23.8656 16.3727 24.2771C15.471 24.9232 14.3731 25.2368 13.2661 25.1642C12.1591 25.0917 11.1115 24.6376 10.3019 23.8793C9.49218 23.1209 8.9705 22.1052 8.8257 21.0054C8.6809 19.9055 8.92194 18.7895 9.50775 17.8474C10.0936 16.9054 10.9879 16.1956 12.0384 15.839C13.0888 15.4823 14.2305 15.501 15.2688 15.8918C15.9299 16.1407 16.5232 16.5306 17.0101 17.0291C17.4727 17.5027 17.2675 18.2504 16.6941 18.5814L16.086 18.9325C15.1611 19.4665 15.3436 20.8522 16.3751 21.1286L17.0534 21.3103Z"
            fill="#2DF8BB"/>
    <path
            d="M74.4595 35.6578L73.1518 30.665H67.4754L66.1975 35.6578H61.6802L67.2971 14.9137H73.5976L79.2146 35.6578H74.4595ZM70.4474 19.223H70.2096L68.1887 27.0689H72.4683L70.4474 19.223Z"
            fill="white"/>
    <path
            d="M82.5155 32.2401H87.2112V17.0832H82.5155V13.6655H91.6096V32.2401H96.3053V35.6578H82.5155V32.2401Z"
            fill="white"/>
    <path
            d="M109.562 35.6578C107.977 35.6578 106.798 35.2417 106.026 34.4096C105.253 33.5775 104.867 32.5175 104.867 31.2296V23.7404H100.706V20.3226H103.41C104.064 20.3226 104.53 20.1939 104.807 19.9363C105.084 19.6787 105.223 19.2032 105.223 18.5098V14.9137H109.265V20.3226H115.239V23.7404H109.265V32.2401H115.239V35.6578H109.562Z"
            fill="white"/>
    <path
            d="M127.753 36.0144C125.177 36.0144 123.225 35.3012 121.898 33.8747C120.57 32.4481 119.907 30.5065 119.907 28.0497C119.907 26.8015 120.075 25.682 120.412 24.6914C120.768 23.6809 121.264 22.829 121.898 22.1355C122.552 21.4223 123.334 20.8873 124.246 20.5307C125.177 20.1542 126.217 19.966 127.366 19.966C128.515 19.966 129.546 20.1542 130.457 20.5307C131.368 20.8873 132.141 21.4025 132.775 22.0761C133.409 22.7497 133.894 23.572 134.231 24.5428C134.588 25.4938 134.766 26.5637 134.766 27.7525V29.0601H124.275V29.3276C124.275 30.3182 124.582 31.1207 125.197 31.7349C125.811 32.3292 126.712 32.6264 127.901 32.6264C128.812 32.6264 129.595 32.458 130.249 32.1212C130.903 31.7646 131.467 31.299 131.943 30.7244L134.32 33.31C133.726 34.0431 132.894 34.6771 131.824 35.212C130.754 35.747 129.397 36.0144 127.753 36.0144ZM127.396 23.1163C126.445 23.1163 125.682 23.4135 125.107 24.0078C124.553 24.5824 124.275 25.365 124.275 26.3557V26.5934H130.457V26.3557C130.457 25.3452 130.18 24.5527 129.625 23.9781C129.09 23.4036 128.347 23.1163 127.396 23.1163Z"
            fill="white"/>
    <path
            d="M139.583 32.2401H143.119V23.7404H139.583V20.3226H147.518V24.6617H147.726C147.865 24.1069 148.053 23.572 148.291 23.0568C148.548 22.5219 148.865 22.0563 149.242 21.66C149.638 21.2439 150.113 20.917 150.668 20.6793C151.223 20.4415 151.877 20.3226 152.63 20.3226H154.086V24.3645H150.817C149.727 24.3645 148.905 24.6914 148.35 25.3452C147.795 25.9792 147.518 26.7618 147.518 27.693V32.2401H152.57V35.6578H139.583V32.2401Z"
            fill="white"/>
    <path
            d="M158.1 13.6655H162.499V23.1163H162.707C163.083 22.2049 163.628 21.452 164.341 20.8576C165.054 20.2632 166.025 19.966 167.254 19.966C168.106 19.966 168.878 20.1245 169.572 20.4415C170.285 20.7585 170.889 21.2439 171.385 21.8978C171.9 22.5516 172.296 23.3837 172.573 24.3942C172.871 25.4046 173.019 26.6033 173.019 27.9902C173.019 29.3771 172.871 30.5758 172.573 31.5863C172.296 32.5967 171.9 33.4289 171.385 34.0827C170.889 34.7365 170.285 35.2219 169.572 35.5389C168.878 35.8559 168.106 36.0144 167.254 36.0144C166.025 36.0144 165.054 35.7272 164.341 35.1526C163.628 34.5582 163.083 33.7954 162.707 32.8642H162.499V35.6578H158.1V13.6655ZM165.352 32.5967C166.342 32.5967 167.105 32.2995 167.64 31.7051C168.175 31.0909 168.442 30.2489 168.442 29.179V26.8015C168.442 25.7316 168.175 24.8994 167.64 24.305C167.105 23.6908 166.342 23.3837 165.352 23.3837C164.579 23.3837 163.905 23.572 163.331 23.9484C162.776 24.3248 162.499 24.9192 162.499 25.7316V30.2489C162.499 31.0612 162.776 31.6556 163.331 32.0321C163.905 32.4085 164.579 32.5967 165.352 32.5967Z"
            fill="white"/>
    <path
            d="M184.225 36.0144C183.037 36.0144 181.967 35.8361 181.016 35.4795C180.065 35.103 179.252 34.5681 178.579 33.8747C177.925 33.1812 177.42 32.3392 177.063 31.3485C176.707 30.3579 176.528 29.2384 176.528 27.9902C176.528 26.742 176.707 25.6226 177.063 24.6319C177.42 23.6413 177.925 22.7993 178.579 22.1058C179.252 21.4124 180.065 20.8873 181.016 20.5307C181.967 20.1542 183.037 19.966 184.225 19.966C185.414 19.966 186.484 20.1542 187.435 20.5307C188.386 20.8873 189.189 21.4124 189.842 22.1058C190.516 22.7993 191.031 23.6413 191.388 24.6319C191.744 25.6226 191.923 26.742 191.923 27.9902C191.923 29.2384 191.744 30.3579 191.388 31.3485C191.031 32.3392 190.516 33.1812 189.842 33.8747C189.189 34.5681 188.386 35.103 187.435 35.4795C186.484 35.8361 185.414 36.0144 184.225 36.0144ZM184.225 32.7453C185.216 32.7453 185.989 32.4382 186.544 31.824C187.098 31.2098 187.376 30.3381 187.376 29.2087V26.7717C187.376 25.6424 187.098 24.7706 186.544 24.1564C185.989 23.5422 185.216 23.2351 184.225 23.2351C183.235 23.2351 182.462 23.5422 181.907 24.1564C181.353 24.7706 181.075 25.6424 181.075 26.7717V29.2087C181.075 30.3381 181.353 31.2098 181.907 31.824C182.462 32.4382 183.235 32.7453 184.225 32.7453Z"
            fill="white"/>
    <path
            d="M196.204 35.6578V20.3226H200.603V23.1163H200.781C200.96 22.6804 201.178 22.2742 201.435 21.8978C201.693 21.5213 202 21.1944 202.356 20.917C202.733 20.6198 203.159 20.392 203.634 20.2335C204.13 20.0552 204.684 19.966 205.299 19.966C206.032 19.966 206.705 20.0948 207.32 20.3524C207.934 20.5901 208.459 20.9567 208.895 21.452C209.331 21.9473 209.667 22.5516 209.905 23.2649C210.163 23.9781 210.291 24.8004 210.291 25.7316V35.6578H205.893V26.3259C205.893 24.3447 205.031 23.354 203.307 23.354C202.971 23.354 202.634 23.4035 202.297 23.5026C201.98 23.5819 201.693 23.7206 201.435 23.9187C201.178 24.097 200.969 24.3248 200.811 24.6022C200.672 24.8796 200.603 25.2065 200.603 25.583V35.6578H196.204Z"
            fill="white"/>
    <path
            d="M222.568 36.0144C219.992 36.0144 218.04 35.3012 216.713 33.8747C215.385 32.4481 214.722 30.5065 214.722 28.0497C214.722 26.8015 214.89 25.682 215.227 24.6914C215.584 23.6809 216.079 22.829 216.713 22.1355C217.367 21.4223 218.149 20.8873 219.061 20.5307C219.992 20.1542 221.032 19.966 222.181 19.966C223.33 19.966 224.361 20.1542 225.272 20.5307C226.183 20.8873 226.956 21.4025 227.59 22.0761C228.224 22.7497 228.71 23.572 229.046 24.5428C229.403 25.4938 229.581 26.5637 229.581 27.7525V29.0601H219.09V29.3276C219.09 30.3182 219.398 31.1207 220.012 31.7349C220.626 32.3292 221.527 32.6264 222.716 32.6264C223.628 32.6264 224.41 32.458 225.064 32.1212C225.718 31.7646 226.283 31.299 226.758 30.7244L229.136 33.31C228.541 34.0431 227.709 34.6771 226.639 35.212C225.569 35.747 224.212 36.0144 222.568 36.0144ZM222.211 23.1163C221.26 23.1163 220.497 23.4135 219.923 24.0078C219.368 24.5824 219.09 25.365 219.09 26.3557V26.5934H225.272V26.3557C225.272 25.3452 224.995 24.5527 224.44 23.9781C223.905 23.4036 223.162 23.1163 222.211 23.1163Z"
            fill="white"/>
</svg>
