<svg xmlns="http://www.w3.org/2000/svg" width="190" height="36" viewBox="0 0 190 36"
     fill="none">
    <path
            d="M25.6716 29.5581L1.9842 13.24C-0.416223 11.5865 0.399764 8.14348 3.39304 7.33385L28.5685 0.509936C29.1018 0.317759 29.6732 0.255375 30.2356 0.327965C30.7978 0.400556 31.3346 0.606025 31.8015 0.927322C32.2683 1.24862 32.6517 1.67648 32.9197 2.17538C33.1878 2.67428 33.3329 3.22985 33.3429 3.79596L31.8509 26.9366C31.674 29.6833 28.072 31.2116 25.6716 29.5581Z"
            fill="#E9327C"/>
    <path
            d="M18.1599 33.5865L4.20492 6.33182C3.88592 5.70832 3.74556 5.00893 3.79928 4.31081C3.85301 3.61269 4.09875 2.94294 4.5094 2.37545C4.92006 1.80795 5.47967 1.36473 6.12653 1.09467C6.77339 0.824618 7.48237 0.738222 8.17527 0.845018L34.0373 4.83122C34.6327 4.92301 35.1978 5.15463 35.6862 5.50703C36.1745 5.85945 36.572 6.32258 36.8463 6.85835C37.1204 7.39412 37.2634 7.98723 37.2632 8.58892C37.2631 9.1906 37.12 9.78368 36.8457 10.3194L24.9321 33.5878C24.6122 34.2096 24.1268 34.7312 23.5293 35.0953C22.9318 35.4595 22.2455 35.652 21.5456 35.6519C20.8457 35.6518 20.1593 35.459 19.562 35.0946C18.9647 34.7302 18.4796 34.2084 18.1599 33.5865Z"
            fill="#1DACE3"/>
    <path
            d="M33.2787 4.71423L20.3867 2.72705L4.55811 7.01919L10.8761 19.3629L25.6708 29.5585C25.9972 29.781 26.3562 29.9513 26.735 30.0635L32.3545 19.0886L33.2787 4.71423Z"
            fill="#001A49"/>
    <path
            d="M56.569 28.924C54.6643 28.924 53.0301 28.5448 51.6662 27.7866C50.3102 27.0283 49.2677 25.9744 48.5387 24.6247C47.8098 23.2675 47.4453 21.6979 47.4453 19.916C47.4453 18.1266 47.8098 16.557 48.5387 15.2074C49.2755 13.8501 50.322 12.7924 51.678 12.0341C53.0418 11.2759 54.6683 10.8967 56.5573 10.8967C58.2268 10.8967 59.6808 11.1887 60.9193 11.7725C62.1656 12.3564 63.1375 13.1828 63.8351 14.252C64.5405 15.3135 64.9129 16.5608 64.9521 17.9939H59.5789C59.4692 17.0992 59.1557 16.3978 58.6383 15.8898C58.1289 15.3818 57.4626 15.1277 56.6396 15.1277C55.9733 15.1277 55.3894 15.3097 54.8877 15.6737C54.3861 16.03 53.9942 16.5608 53.712 17.266C53.4377 17.9636 53.3005 18.828 53.3005 19.8592C53.3005 20.8904 53.4377 21.7624 53.712 22.4751C53.9942 23.1803 54.3861 23.7148 54.8877 24.0788C55.3894 24.4352 55.9733 24.6133 56.6396 24.6133C57.1726 24.6133 57.6429 24.5034 58.0505 24.2835C58.4659 24.0636 58.8069 23.7414 59.0734 23.3168C59.3399 22.8846 59.5084 22.3614 59.5789 21.7472H64.9521C64.8972 23.1879 64.5249 24.4465 63.8351 25.5232C63.1532 26.5999 62.193 27.4378 60.9545 28.0368C59.7239 28.6282 58.2621 28.924 56.569 28.924Z"
            fill="black"/>
    <path
            d="M72.9853 28.8898C71.8331 28.8898 70.8102 28.7041 69.9166 28.3325C69.0309 27.9534 68.3294 27.3847 67.812 26.6265C67.3026 25.8607 67.0478 24.9015 67.0478 23.749C67.0478 22.7784 67.2242 21.9595 67.5769 21.2922C67.9296 20.625 68.4156 20.0829 69.0348 19.6658C69.654 19.2488 70.3673 18.9341 71.1747 18.7218C71.982 18.5019 72.8442 18.3541 73.7613 18.2782C74.7881 18.1872 75.615 18.0925 76.2421 17.9939C76.8691 17.8877 77.3238 17.7399 77.6059 17.5503C77.896 17.3532 78.041 17.0764 78.041 16.72V16.6632C78.041 16.0793 77.8332 15.6282 77.4178 15.3097C77.0024 14.9913 76.442 14.832 75.7365 14.832C74.9762 14.832 74.3648 14.9913 73.9024 15.3097C73.4399 15.6282 73.146 16.068 73.0206 16.6291L67.718 16.4471C67.8747 15.3855 68.2784 14.4377 68.929 13.6037C69.5874 12.762 70.4888 12.1024 71.6332 11.6247C72.7854 11.1394 74.1689 10.8967 75.7835 10.8967C76.9358 10.8967 77.9979 11.0294 78.9698 11.2948C79.9417 11.5526 80.7883 11.9317 81.5094 12.4322C82.2305 12.925 82.787 13.5316 83.1789 14.252C83.5787 14.9723 83.7786 15.795 83.7786 16.72V28.5941H78.3702V26.1602H78.2291C77.9077 26.7516 77.4962 27.252 76.9946 27.6615C76.5007 28.0709 75.9168 28.378 75.2427 28.5827C74.5765 28.7875 73.824 28.8898 72.9853 28.8898ZM74.7607 25.2503C75.3799 25.2503 75.9364 25.129 76.4302 24.8863C76.9318 24.6437 77.3316 24.3101 77.6295 23.8854C77.9273 23.4532 78.0762 22.9528 78.0762 22.3841V20.7236C77.9116 20.807 77.7118 20.8828 77.4766 20.951C77.2493 21.0193 76.9985 21.0837 76.7241 21.1444C76.4498 21.2051 76.1676 21.2581 75.8776 21.3036C75.5876 21.3491 75.3093 21.3908 75.0428 21.4287C74.502 21.5121 74.0395 21.641 73.6555 21.8154C73.2792 21.9898 72.9892 22.2173 72.7854 22.4979C72.5895 22.7708 72.4915 23.0969 72.4915 23.476C72.4915 24.0522 72.7031 24.492 73.1264 24.7953C73.5575 25.0986 74.1022 25.2503 74.7607 25.2503Z"
            fill="black"/>
    <path
            d="M87.294 28.5941V11.1242H92.8788V14.3088H93.0669C93.3961 13.1563 93.933 12.2995 94.6777 11.7384C95.4223 11.1697 96.2884 10.8854 97.276 10.8854C97.5425 10.8854 97.8169 10.9043 98.0991 10.9422C98.3812 10.9726 98.6438 11.0219 98.8868 11.0901V15.9239C98.6125 15.8329 98.2519 15.7609 97.8051 15.7078C97.3662 15.6547 96.9743 15.6282 96.6294 15.6282C95.9475 15.6282 95.3322 15.776 94.7835 16.0718C94.2426 16.3599 93.8155 16.7655 93.5019 17.2887C93.1962 17.8043 93.0434 18.4109 93.0434 19.1085V28.5941H87.294Z"
            fill="black"/>
    <path
            d="M101.229 28.5941V5.30092H106.979V14.1155H107.096C107.332 13.5847 107.665 13.0729 108.096 12.58C108.535 12.0872 109.091 11.6853 109.765 11.3744C110.447 11.056 111.262 10.8967 112.211 10.8967C113.465 10.8967 114.637 11.2152 115.726 11.8521C116.824 12.4891 117.709 13.471 118.383 14.7979C119.058 16.1248 119.395 17.8157 119.395 19.8705C119.395 21.8496 119.069 23.5063 118.419 24.8408C117.776 26.1753 116.906 27.1762 115.809 27.8435C114.719 28.5107 113.508 28.8443 112.176 28.8443C111.266 28.8443 110.479 28.7003 109.812 28.4121C109.146 28.124 108.586 27.7449 108.131 27.2748C107.684 26.8047 107.339 26.3004 107.096 25.7621H106.92V28.5941H101.229ZM106.861 19.8592C106.861 20.7994 106.991 21.6183 107.249 22.3159C107.516 23.0135 107.896 23.5556 108.39 23.9423C108.891 24.3214 109.491 24.511 110.189 24.511C110.894 24.511 111.494 24.3214 111.987 23.9423C112.481 23.5556 112.854 23.0135 113.104 22.3159C113.363 21.6183 113.492 20.7994 113.492 19.8592C113.492 18.919 113.363 18.1038 113.104 17.4138C112.854 16.7238 112.481 16.1893 111.987 15.8102C111.502 15.431 110.902 15.2415 110.189 15.2415C109.483 15.2415 108.884 15.4272 108.39 15.7988C107.896 16.1703 107.516 16.7011 107.249 17.3911C106.991 18.0811 106.861 18.9038 106.861 19.8592Z"
            fill="black"/>
    <path
            d="M130.837 28.924C128.941 28.924 127.31 28.5486 125.946 27.798C124.59 27.0397 123.544 25.9858 122.807 24.6361C122.078 23.2788 121.714 21.7055 121.714 19.916C121.714 18.119 122.078 16.5457 122.807 15.196C123.544 13.8387 124.59 12.7848 125.946 12.0341C127.31 11.2759 128.941 10.8967 130.837 10.8967C132.734 10.8967 134.361 11.2759 135.717 12.0341C137.081 12.7848 138.127 13.8387 138.856 15.196C139.593 16.5457 139.961 18.119 139.961 19.916C139.961 21.7055 139.593 23.2788 138.856 24.6361C138.127 25.9858 137.081 27.0397 135.717 27.798C134.361 28.5486 132.734 28.924 130.837 28.924ZM130.873 24.7271C131.563 24.7271 132.146 24.5224 132.625 24.1129C133.103 23.7035 133.467 23.1348 133.718 22.4069C133.977 21.679 134.106 20.8373 134.106 19.8819C134.106 18.9114 133.977 18.0621 133.718 17.3342C133.467 16.6063 133.103 16.0376 132.625 15.6282C132.146 15.2187 131.563 15.014 130.873 15.014C130.159 15.014 129.556 15.2187 129.062 15.6282C128.576 16.0376 128.204 16.6063 127.945 17.3342C127.694 18.0621 127.569 18.9114 127.569 19.8819C127.569 20.8373 127.694 21.679 127.945 22.4069C128.204 23.1348 128.576 23.7035 129.062 24.1129C129.556 24.5224 130.159 24.7271 130.873 24.7271Z"
            fill="black"/>
    <path
            d="M148.656 18.6308V28.5941H142.906V11.1242H148.374V14.3316H148.574C148.973 13.2625 149.655 12.4246 150.619 11.818C151.583 11.2038 152.732 10.8967 154.064 10.8967C155.334 10.8967 156.435 11.1735 157.368 11.727C158.309 12.273 159.038 13.0388 159.555 14.0245C160.08 15.0026 160.339 16.1476 160.331 17.4593V28.5941H154.582V18.5512C154.589 17.5807 154.335 16.8224 153.817 16.2765C153.308 15.7305 152.598 15.4576 151.689 15.4576C151.086 15.4576 150.553 15.5865 150.09 15.8443C149.636 16.0945 149.283 16.4547 149.032 16.9248C148.789 17.3949 148.664 17.9636 148.656 18.6308Z"
            fill="black"/>
    <path
            d="M163.89 28.5941V11.1242H169.64V28.5941H163.89ZM166.771 9.08834C165.964 9.08834 165.27 8.83054 164.69 8.31494C164.11 7.79175 163.82 7.16241 163.82 6.42691C163.82 5.699 164.11 5.07724 164.69 4.56164C165.27 4.03845 165.964 3.77686 166.771 3.77686C167.586 3.77686 168.28 4.03845 168.852 4.56164C169.432 5.07724 169.722 5.699 169.722 6.42691C169.722 7.16241 169.432 7.79175 168.852 8.31494C168.28 8.83054 167.586 9.08834 166.771 9.08834Z"
            fill="black"/>
    <path
            d="M178.39 28.8898C177.238 28.8898 176.215 28.7041 175.322 28.3325C174.436 27.9534 173.734 27.3847 173.217 26.6265C172.707 25.8607 172.453 24.9015 172.453 23.749C172.453 22.7784 172.629 21.9595 172.982 21.2922C173.335 20.625 173.821 20.0829 174.44 19.6658C175.059 19.2488 175.772 18.9341 176.58 18.7218C177.387 18.5019 178.249 18.3541 179.166 18.2782C180.193 18.1872 181.02 18.0925 181.647 17.9939C182.274 17.8877 182.729 17.7399 183.011 17.5503C183.301 17.3532 183.446 17.0764 183.446 16.72V16.6632C183.446 16.0793 183.238 15.6282 182.823 15.3097C182.407 14.9913 181.847 14.832 181.141 14.832C180.381 14.832 179.77 14.9913 179.307 15.3097C178.845 15.6282 178.551 16.068 178.425 16.6291L173.123 16.4471C173.28 15.3855 173.683 14.4377 174.334 13.6037C174.992 12.762 175.894 12.1024 177.038 11.6247C178.19 11.1394 179.574 10.8967 181.188 10.8967C182.341 10.8967 183.403 11.0294 184.375 11.2948C185.347 11.5526 186.193 11.9317 186.914 12.4322C187.635 12.925 188.192 13.5316 188.584 14.252C188.984 14.9723 189.184 15.795 189.184 16.72V28.5941H183.775V26.1602H183.634C183.313 26.7516 182.901 27.252 182.399 27.6615C181.906 28.0709 181.322 28.378 180.648 28.5827C179.981 28.7875 179.229 28.8898 178.39 28.8898ZM180.166 25.2503C180.785 25.2503 181.341 25.129 181.835 24.8863C182.337 24.6437 182.737 24.3101 183.034 23.8854C183.332 23.4532 183.481 22.9528 183.481 22.3841V20.7236C183.317 20.807 183.117 20.8828 182.882 20.951C182.654 21.0193 182.403 21.0837 182.129 21.1444C181.855 21.2051 181.573 21.2581 181.283 21.3036C180.993 21.3491 180.714 21.3908 180.448 21.4287C179.907 21.5121 179.444 21.641 179.06 21.8154C178.684 21.9898 178.394 22.2173 178.19 22.4979C177.994 22.7708 177.896 23.0969 177.896 23.476C177.896 24.0522 178.108 24.492 178.531 24.7953C178.962 25.0986 179.507 25.2503 180.166 25.2503Z"
            fill="black"/>
</svg>
