<svg width="28" height="40" viewBox="0 0 28 40" fill="none" xmlns="http://www.w3.org/2000/svg">
<g clip-path="url(#clip0_4872_3507)">
<path fill-rule="evenodd" clip-rule="evenodd" d="M13.334 19.9999C13.334 16.318 16.3187 13.3333 20.0005 13.3333C23.6823 13.3333 26.667 16.318 26.667 19.9999C26.667 23.6818 23.6823 26.6666 20.0005 26.6666C16.3187 26.6666 13.334 23.6818 13.334 19.9999Z" fill="#1ABCFE"/>
<path fill-rule="evenodd" clip-rule="evenodd" d="M0 33.3334C0 29.6515 2.98469 26.6667 6.6665 26.6667H13.333V33.3334C13.333 37.0153 10.3483 40.0001 6.6665 40.0001C2.98469 40.0001 0 37.0153 0 33.3334Z" fill="#0ACF83"/>
<path fill-rule="evenodd" clip-rule="evenodd" d="M13.334 0.000244141V13.3336H20.0005C23.6823 13.3336 26.667 10.3488 26.667 6.6669C26.667 2.98501 23.6823 0.000244141 20.0005 0.000244141H13.334Z" fill="#FF7262"/>
<path fill-rule="evenodd" clip-rule="evenodd" d="M0 6.6669C0 10.3488 2.98469 13.3335 6.6665 13.3335H13.333V0.000244141H6.6665C2.98469 0.000244141 0 2.98501 0 6.6669Z" fill="#F24E1E"/>
<path fill-rule="evenodd" clip-rule="evenodd" d="M0 19.9999C0 23.6818 2.98469 26.6666 6.6665 26.6666H13.333V13.3333H6.6665C2.98469 13.3333 0 16.318 0 19.9999Z" fill="#A259FF"/>
</g>
<defs>
<clipPath id="clip0_4872_3507">
<rect width="28" height="40" fill="white"/>
</clipPath>
</defs>
</svg>
