<svg width="36" height="40" viewBox="0 0 36 40" fill="none" xmlns="http://www.w3.org/2000/svg">
<path d="M34.7143 19.0006C33.8278 17.4763 32.5808 16.2542 31.0218 15.3343C29.8567 14.6565 28.6486 14.2263 27.2872 14.0415V9.19812C28.6486 8.62044 29.4935 7.34184 29.4935 5.85018C29.4935 3.81704 27.862 2.16946 25.8292 2.16946C23.7948 2.16946 22.1347 3.81704 22.1347 5.85018C22.1347 7.34184 22.9309 8.62044 24.2922 9.19812V14.0437C23.2031 14.201 22.0738 14.5403 21.0424 15.0616C18.9358 13.4628 12.0282 8.21746 7.98741 5.15387C8.08325 4.80858 8.15705 4.45267 8.15705 4.07717C8.15705 1.82526 6.33226 0 4.07811 0C1.82396 0 0 1.82526 0 4.07717C0 6.32881 1.82587 8.15461 4.08002 8.15461C4.84892 8.15461 5.56009 7.92985 6.1738 7.56034L7.02656 8.20685L18.7441 16.6442C18.1247 17.2126 17.5478 17.8591 17.0863 18.5845C16.151 20.0634 15.5795 21.6906 15.5795 23.4655V23.8358C15.5795 25.0818 15.8164 26.2581 16.2199 27.3631C16.5752 28.3279 17.0947 29.2052 17.7381 29.9984L13.8492 33.8943C13.2856 33.6847 12.6735 33.6416 12.0861 33.7704C11.4987 33.8991 10.9608 34.1942 10.5367 34.6203C10.2431 34.9123 10.0104 35.2596 9.85201 35.6421C9.69366 36.0247 9.61285 36.4348 9.61425 36.8488C9.61452 37.6904 9.94261 38.4814 10.5383 39.0765C10.8303 39.3701 11.1777 39.603 11.5604 39.7615C11.9431 39.92 12.3535 40.0011 12.7677 40C13.1821 40.001 13.5926 39.92 13.9754 39.7615C14.3582 39.6029 14.7057 39.3701 14.9979 39.0765C15.2914 38.7845 15.524 38.4373 15.6824 38.0549C15.8409 37.6726 15.9219 37.2626 15.9209 36.8488C15.9209 36.5231 15.8706 36.2053 15.7758 35.9032L19.7954 31.8857C20.3465 32.2661 20.9416 32.5863 21.5815 32.8625C22.8435 33.4078 24.2364 33.74 25.7609 33.74H26.0402C27.7256 33.74 29.3154 33.3444 30.8099 32.5352C32.3848 31.6799 33.6173 30.5105 34.5485 29.0174C35.4846 27.5203 36 25.8662 36 24.0464V23.9555C36 22.1654 35.5853 20.5137 34.7143 19.0006ZM29.8031 27.4284C28.7121 28.64 27.458 29.3864 26.0402 29.3864H25.8066C24.9969 29.3864 24.2048 29.1627 23.4294 28.7559C22.5554 28.3081 21.8911 27.6692 21.3473 26.8602C20.7854 26.0662 20.4804 25.1993 20.4804 24.2801V24.001C20.4804 23.0973 20.6539 22.2405 21.0911 21.4312C21.5586 20.5466 22.19 19.8588 23.0297 19.3119C23.8542 18.7687 24.7347 18.5023 25.7154 18.5023H25.8066C26.6959 18.5023 27.5377 18.6776 28.3322 19.0838C29.1417 19.517 29.8031 20.1088 30.3157 20.8873C30.8137 21.6661 31.11 22.5061 31.2053 23.4211C31.2202 23.6113 31.2279 23.8062 31.2279 23.9923C31.2279 25.2341 30.753 26.3843 29.8031 27.4284Z" fill="#F8761F"/>
</svg>
