<svg width="131" height="23" viewBox="0 0 131 23" fill="none" xmlns="http://www.w3.org/2000/svg">
<path d="M10.4075 0H24.5635L14.156 15.3821H0L10.4075 0Z" fill="#007AFF"/>
<path d="M11.0272 16.8072L6.99609 22.7651H21.8236L32.2311 7.38306H21.2875L14.911 16.8072H11.0272Z" fill="#312ECB"/>
<path d="M42.3125 4.01343C42.4289 4.86696 42.4677 5.42952 42.4677 6.88441V17.282C42.4677 18.5817 42.4289 19.3964 42.3125 20.153H46.5802C46.4638 19.3383 46.425 18.6205 46.425 17.282V6.88441C46.425 5.46832 46.4638 4.80877 46.5802 4.01343H42.3125Z" fill="#1C1B66"/>
<path d="M52.8216 20.153C52.7053 19.1443 52.6665 18.3295 52.6665 17.2238V13.3053C53.5006 11.9474 54.4705 11.2685 55.5568 11.2685C56.1388 11.2685 56.585 11.4625 56.8371 11.8116C57.0699 12.1414 57.1475 12.4712 57.1475 13.2471V17.2238C57.1475 18.4071 57.1087 19.2219 56.9923 20.153H61.0272C60.9302 19.3383 60.872 18.3683 60.872 17.2432V12.3742C60.872 10.8417 60.5423 9.89118 59.7663 9.11524C59.0486 8.39749 57.9816 8.02892 56.6432 8.02892C55.0525 8.02892 53.8692 8.51388 52.6471 9.67779C52.6471 9.542 52.6665 9.25103 52.6665 9.13464V8.3199H48.8062C48.9225 9.09584 48.9613 9.91058 48.9613 11.2491V17.2238C48.9613 18.4265 48.9225 19.2413 48.8062 20.153H52.8216Z" fill="#1C1B66"/>
<path d="M74.4777 11.9086C73.8375 9.32862 71.7619 7.85433 68.7745 7.85433C64.9918 7.85433 62.5476 10.3373 62.5476 14.217C62.5476 16.1181 63.1683 17.8252 64.2934 18.9309C65.3604 20.0172 66.951 20.5992 68.8133 20.5992C71.0635 20.5992 72.8288 19.8038 73.7987 18.3683C74.1673 17.8058 74.4001 17.282 74.6134 16.4479L71.0441 15.8853C70.9665 16.3315 70.8695 16.5255 70.695 16.7776C70.307 17.3208 69.6086 17.6312 68.8521 17.6312C67.3002 17.6312 66.3109 16.2733 66.3109 14.1782C66.3109 12.0444 67.242 10.8029 68.8133 10.8029C69.5116 10.8029 70.0548 11.0357 70.4428 11.4819C70.695 11.7728 70.8113 12.0444 70.9859 12.6264L74.4777 11.9086Z" fill="#1C1B66"/>
<path d="M83.902 12.4906C82.5053 12.5294 81.9234 12.5488 81.1668 12.6264C79.4209 12.7816 78.1212 13.1889 77.1319 13.8873C76.2008 14.5274 75.7158 15.4973 75.7158 16.7195C75.7158 17.7864 76.0844 18.7175 76.7827 19.3577C77.5587 20.0754 78.6644 20.4246 80.1387 20.4246C81.7294 20.4246 82.8157 20.0948 83.902 19.2607V20.153H87.6653C87.5683 19.2801 87.5295 18.5817 87.5295 17.3984V12.1608C87.5295 10.4149 86.9864 9.34802 85.7449 8.66907C84.9883 8.2617 83.5916 7.99012 82.1561 7.99012C80.2745 7.99012 78.839 8.35869 77.7915 9.09584C76.9767 9.67779 76.55 10.2985 76.162 11.4431L79.8671 12.0444C80.1581 11.0939 80.8176 10.6865 82.0591 10.6865C83.3394 10.6865 83.902 11.1133 83.902 12.0444V12.4906ZM83.902 15.5167C83.902 16.0987 83.6498 16.6225 83.2037 17.0104C82.6799 17.4566 81.807 17.7476 81.0116 17.7476C80.0029 17.7476 79.4209 17.3402 79.4209 16.6419C79.4209 16.0793 79.8477 15.5943 80.5461 15.3616C81.3414 15.1094 82.1755 15.0124 83.902 14.9736V15.5167Z" fill="#1C1B66"/>
<path d="M93.7404 20.153C93.624 19.1443 93.5852 18.3295 93.5852 17.2238V13.3053C94.4193 11.9474 95.3893 11.2685 96.4756 11.2685C97.0575 11.2685 97.5037 11.4625 97.7559 11.8116C97.9887 12.1414 98.0663 12.4712 98.0663 13.2471V17.2238C98.0663 18.4071 98.0275 19.2219 97.9111 20.153H101.946C101.849 19.3383 101.791 18.3683 101.791 17.2432V12.3742C101.791 10.8417 101.461 9.89118 100.685 9.11524C99.9673 8.39749 98.9004 8.02892 97.5619 8.02892C95.9712 8.02892 94.7879 8.51388 93.5658 9.67779C93.5658 9.542 93.5852 9.25103 93.5852 9.13464V8.3199H89.7249C89.8413 9.09584 89.8801 9.91058 89.8801 11.2491V17.2238C89.8801 18.4265 89.8413 19.2413 89.7249 20.153H93.7404Z" fill="#1C1B66"/>
<path d="M105.503 8.3199H104.805C104.126 8.3199 103.641 8.2811 103.078 8.20351V11.4431C103.641 11.3655 104.145 11.3267 104.766 11.3267H105.503V17.2626C105.503 18.5817 105.775 19.2413 106.512 19.8038C107.133 20.2694 108.044 20.4828 109.363 20.4828C110.411 20.4828 111.168 20.3664 112.04 20.0948L111.749 17.1462C111.265 17.3984 110.896 17.4954 110.392 17.4954C110.023 17.4954 109.713 17.4178 109.499 17.282C109.247 17.1074 109.15 16.8358 109.15 16.2927V11.3267H109.965C110.663 11.3267 111.168 11.3655 111.749 11.4431V8.2229C111.148 8.3005 110.702 8.3199 109.848 8.3199H109.15V7.91253C109.15 6.9814 109.208 6.05027 109.305 5.25493H105.348C105.464 6.16666 105.503 6.9426 105.503 7.91253V8.3199Z" fill="#1C1B66"/>
<path d="M119.131 20.5992C122.991 20.5992 125.552 18.0386 125.552 14.1782C125.552 10.3373 123.069 7.87373 119.15 7.87373C115.232 7.87373 112.749 10.3373 112.749 14.217C112.749 18.1161 115.232 20.5992 119.131 20.5992ZM119.17 10.7835C120.819 10.7835 121.808 12.0638 121.808 14.2364C121.808 16.3897 120.838 17.6506 119.15 17.6506C117.463 17.6506 116.454 16.3509 116.454 14.1976C116.454 12.0638 117.463 10.7835 119.17 10.7835Z" fill="#1C1B66"/>
<path d="M127.081 16.2345V20.153H131V16.2345H127.081Z" fill="#1C1B66"/>
</svg>
