<svg xmlns="http://www.w3.org/2000/svg" width="202" height="36" viewBox="0 0 202 36"
                             fill="none">
                            <path d="M16.6684 0.322021H38.3559L22.4112 23.8879H0.723633L16.6684 0.322021Z"
                                  fill="#007AFF"/>
                            <path
                                d="M17.6167 26.0719L11.4409 35.1996H34.1573L50.102 11.6337H33.3359L23.5669 26.0719H17.6167Z"
                                fill="#312ECB"/>
                            <path
                                d="M65.5479 6.47083C65.7262 7.77848 65.7856 8.64033 65.7856 10.8693V26.7988C65.7856 28.79 65.7262 30.0382 65.5479 31.1973H72.0861C71.9078 29.9491 71.8483 28.8495 71.8483 26.7988V10.8693C71.8483 8.69977 71.9078 7.68932 72.0861 6.47083H65.5479Z"
                                fill="white"/>
                            <path
                                d="M81.6483 31.1973C81.47 29.6519 81.4105 28.4037 81.4105 26.7097V20.7064C82.6885 18.626 84.1744 17.5858 85.8387 17.5858C86.7303 17.5858 87.4138 17.883 87.8002 18.418C88.1568 18.9232 88.2757 19.4284 88.2757 20.6172V26.7097C88.2757 28.5225 88.2162 29.7708 88.0379 31.1973H94.2195C94.0709 29.9491 93.9818 28.4631 93.9818 26.7394V19.2798C93.9818 16.932 93.4766 15.4758 92.2878 14.287C91.1882 13.1874 89.5536 12.6227 87.503 12.6227C85.066 12.6227 83.2531 13.3657 81.3808 15.1489C81.3808 14.9408 81.4105 14.495 81.4105 14.3167V13.0685H75.4964C75.6747 14.2573 75.7341 15.5055 75.7341 17.5561V26.7097C75.7341 28.5523 75.6747 29.8005 75.4964 31.1973H81.6483Z"
                                fill="white"/>
                            <path
                                d="M114.826 18.5666C113.845 14.6139 110.665 12.3552 106.089 12.3552C100.293 12.3552 96.5488 16.1593 96.5488 22.1032C96.5488 25.0157 97.4998 27.631 99.2235 29.325C100.858 30.9892 103.295 31.8808 106.148 31.8808C109.596 31.8808 112.3 30.6623 113.786 28.4631C114.351 27.6012 114.707 26.7988 115.034 25.5209L109.566 24.659C109.447 25.3426 109.298 25.6398 109.031 26.0261C108.437 26.8583 107.367 27.3338 106.208 27.3338C103.83 27.3338 102.314 25.2534 102.314 22.0437C102.314 18.7746 103.741 16.8726 106.148 16.8726C107.218 16.8726 108.05 17.2292 108.645 17.9128C109.031 18.3585 109.209 18.7746 109.477 19.6662L114.826 18.5666Z"
                                fill="white"/>
                            <path
                                d="M129.265 19.4582C127.125 19.5176 126.233 19.5473 125.074 19.6662C122.399 19.9039 120.408 20.5281 118.893 21.5979C117.466 22.5787 116.723 24.0647 116.723 25.937C116.723 27.5715 117.288 28.9981 118.358 29.9788C119.546 31.0784 121.24 31.6134 123.499 31.6134C125.936 31.6134 127.6 31.1081 129.265 29.8302V31.1973H135.03C134.882 29.8599 134.822 28.79 134.822 26.9771V18.9529C134.822 16.2782 133.99 14.6436 132.088 13.6035C130.929 12.9794 128.789 12.5633 126.59 12.5633C123.707 12.5633 121.508 13.1279 119.903 14.2573C118.655 15.1489 118.001 16.0999 117.407 17.8533L123.083 18.7746C123.529 17.3184 124.539 16.6943 126.441 16.6943C128.403 16.6943 129.265 17.3481 129.265 18.7746V19.4582ZM129.265 24.0944C129.265 24.9859 128.878 25.7884 128.195 26.3828C127.392 27.0663 126.055 27.5121 124.836 27.5121C123.291 27.5121 122.399 26.888 122.399 25.8181C122.399 24.9562 123.053 24.2132 124.123 23.8566C125.342 23.4703 126.62 23.3217 129.265 23.2622V24.0944Z"
                                fill="white"/>
                            <path
                                d="M144.337 31.1973C144.159 29.6519 144.1 28.4037 144.1 26.7097V20.7064C145.378 18.626 146.864 17.5858 148.528 17.5858C149.419 17.5858 150.103 17.883 150.489 18.418C150.846 18.9232 150.965 19.4284 150.965 20.6172V26.7097C150.965 28.5225 150.905 29.7708 150.727 31.1973H156.909C156.76 29.9491 156.671 28.4631 156.671 26.7394V19.2798C156.671 16.932 156.166 15.4758 154.977 14.287C153.877 13.1874 152.243 12.6227 150.192 12.6227C147.755 12.6227 145.942 13.3657 144.07 15.1489C144.07 14.9408 144.1 14.495 144.1 14.3167V13.0685H138.186C138.364 14.2573 138.423 15.5055 138.423 17.5561V26.7097C138.423 28.5523 138.364 29.8005 138.186 31.1973H144.337Z"
                                fill="white"/>
                            <path
                                d="M162.358 13.0685H161.289C160.248 13.0685 159.505 13.0091 158.644 12.8902V17.8533C159.505 17.7344 160.278 17.675 161.229 17.675H162.358V26.7691C162.358 28.79 162.775 29.8005 163.904 30.6623C164.855 31.3756 166.252 31.7025 168.273 31.7025C169.877 31.7025 171.036 31.5242 172.374 31.1081L171.928 26.5908C171.185 26.9771 170.62 27.1257 169.848 27.1257C169.283 27.1257 168.808 27.0069 168.481 26.7988C168.094 26.5314 167.946 26.1153 167.946 25.2831V17.675H169.194C170.264 17.675 171.036 17.7344 171.928 17.8533V12.9199C171.007 13.0388 170.323 13.0685 169.016 13.0685H167.946V12.4444C167.946 11.0179 168.035 9.59135 168.183 8.37286H162.121C162.299 9.76967 162.358 10.9584 162.358 12.4444V13.0685Z"
                                fill="white"/>
                            <path
                                d="M183.237 31.8808C189.151 31.8808 193.074 27.9579 193.074 22.0437C193.074 16.1593 189.27 12.385 183.266 12.385C177.263 12.385 173.459 16.1593 173.459 22.1032C173.459 28.0768 177.263 31.8808 183.237 31.8808ZM183.296 16.8429C185.822 16.8429 187.338 18.8043 187.338 22.1329C187.338 25.4317 185.852 27.3635 183.266 27.3635C180.681 27.3635 179.135 25.3723 179.135 22.0735C179.135 18.8043 180.681 16.8429 183.296 16.8429Z"
                                fill="white"/>
                            <path d="M195.417 25.194V31.1973H201.42V25.194H195.417Z" fill="white"/>
                        </svg>
