<svg width="41" height="41" viewBox="0 0 41 41" fill="none" xmlns="http://www.w3.org/2000/svg">
<circle cx="20.833" cy="20.167" r="20.167" fill="#1A6BFB"/>
<path d="M28.0343 10.5636H13.6293C12.9926 10.5636 12.3819 10.8165 11.9317 11.2668C11.4815 11.717 11.2285 12.3277 11.2285 12.9644V27.3694C11.2285 28.0062 11.4815 28.6168 11.9317 29.0671C12.3819 29.5173 12.9926 29.7703 13.6293 29.7703H28.0343C28.6711 29.7703 29.2818 29.5173 29.732 29.0671C30.1822 28.6168 30.4352 28.0062 30.4352 27.3694V12.9644C30.4352 12.3277 30.1822 11.717 29.732 11.2668C29.2818 10.8165 28.6711 10.5636 28.0343 10.5636ZM23.3959 14.088C23.3946 14.0032 23.4104 13.9189 23.4423 13.8403C23.4742 13.7616 23.5215 13.6902 23.5815 13.6302C23.6415 13.5702 23.713 13.5228 23.7916 13.4909C23.8703 13.4591 23.9545 13.4433 24.0394 13.4446C24.2059 13.4494 24.3644 13.5178 24.4822 13.6356C24.6 13.7534 24.6684 13.9118 24.6732 14.0784V22.6254C24.654 22.7813 24.5785 22.9248 24.4609 23.0288C24.3433 23.1329 24.1916 23.1903 24.0346 23.1903C23.8775 23.1903 23.7259 23.1329 23.6082 23.0288C23.4906 22.9248 23.4151 22.7813 23.3959 22.6254V14.088ZM20.1884 13.7615C20.1884 13.5909 20.2562 13.4272 20.3769 13.3065C20.4975 13.1859 20.6612 13.1181 20.8318 13.1181C21.0025 13.1181 21.1662 13.1859 21.2868 13.3065C21.4075 13.4272 21.4753 13.5909 21.4753 13.7615V23.0479C21.4753 23.2186 21.4075 23.3822 21.2868 23.5029C21.1662 23.6236 21.0025 23.6914 20.8318 23.6914C20.6612 23.6914 20.4975 23.6236 20.3769 23.5029C20.2562 23.3822 20.1884 23.2186 20.1884 23.0479V13.7615ZM16.9905 14.088C17.0097 13.9321 17.0852 13.7886 17.2028 13.6846C17.3204 13.5805 17.4721 13.5231 17.6291 13.5231C17.7862 13.5231 17.9378 13.5805 18.0555 13.6846C18.1731 13.7886 18.2486 13.9321 18.2678 14.088V22.635C18.2678 22.719 18.2511 22.8022 18.2186 22.8798C18.1862 22.9573 18.1386 23.0276 18.0787 23.0866C18.0189 23.1456 17.9478 23.1921 17.8698 23.2233C17.7918 23.2546 17.7084 23.2701 17.6243 23.2688C17.4578 23.264 17.2993 23.1956 17.1815 23.0778C17.0637 22.96 16.9953 22.8016 16.9905 22.635V14.088ZM13.7926 15.3653C13.8118 15.2094 13.8873 15.0659 14.0049 14.9618C14.1225 14.8577 14.2742 14.8003 14.4312 14.8003C14.5883 14.8003 14.7399 14.8577 14.8576 14.9618C14.9752 15.0659 15.0507 15.2094 15.0698 15.3653V21.1273C15.0673 21.2962 14.9984 21.4574 14.878 21.576C14.7576 21.6946 14.5954 21.7611 14.4264 21.7611C14.2591 21.7586 14.0993 21.691 13.981 21.5727C13.8627 21.4544 13.7951 21.2946 13.7926 21.1273V15.3653ZM27.6502 25.1319C25.6758 26.5712 23.2734 27.3021 20.8318 27.2062C18.3903 27.3021 15.9879 26.5712 14.0135 25.1319C13.9132 25.0146 13.8584 24.8652 13.8591 24.7109C13.8597 24.5567 13.9158 24.4078 14.0171 24.2914C14.1183 24.175 14.258 24.0988 14.4107 24.0768C14.5634 24.0548 14.719 24.0884 14.849 24.1715C16.5986 25.3934 18.6994 26.0105 20.8318 25.9289C22.9659 26.0112 25.0679 25.3904 26.8147 24.1619C26.9447 24.0788 27.1002 24.0452 27.253 24.0672C27.4057 24.0892 27.5454 24.1654 27.6466 24.2818C27.7479 24.3982 27.804 24.5471 27.8046 24.7013C27.8053 24.8556 27.7505 25.005 27.6502 25.1223V25.1319ZM27.8711 21.1273C27.8519 21.2832 27.7764 21.4267 27.6588 21.5307C27.5412 21.6348 27.3895 21.6922 27.2325 21.6922C27.0754 21.6922 26.9238 21.6348 26.8061 21.5307C26.6885 21.4267 26.613 21.2832 26.5938 21.1273V15.3653C26.5964 15.1963 26.6653 15.0351 26.7857 14.9165C26.9061 14.7979 27.0683 14.7314 27.2373 14.7314C27.4054 14.7314 27.5666 14.7982 27.6855 14.9171C27.8043 15.036 27.8711 15.1972 27.8711 15.3653V21.1273Z" fill="white"/>
</svg>
