<svg xmlns="http://www.w3.org/2000/svg" width="172" height="46" viewBox="0 0 172 46"
     fill="none">
    <path
            d="M28.2158 11.3367H30.9221V30.1092H39.0409V32.8064H28.2158V11.3367ZM47.471 11.3367C49.0768 11.3367 50.6464 11.8113 51.9815 12.7004C53.3167 13.5895 54.3574 14.8532 54.9719 16.3318C55.5863 17.8104 55.7471 19.4373 55.4338 21.0068C55.1206 22.5765 54.3474 24.0182 53.2118 25.1499C52.0764 26.2816 50.6298 27.0522 49.0548 27.3644C47.4801 27.6766 45.8476 27.5164 44.364 26.904C42.8805 26.2914 41.6126 25.2544 40.7205 23.9237C39.8283 22.593 39.3522 21.0287 39.3522 19.4283C39.3522 18.3657 39.5622 17.3134 39.9701 16.3318C40.3781 15.35 40.9762 14.458 41.7302 13.7067C42.484 12.9553 43.379 12.3592 44.364 11.9526C45.349 11.546 46.4049 11.3367 47.471 11.3367ZM47.471 24.8227C48.5415 24.8227 49.588 24.5063 50.4781 23.9136C51.3682 23.3207 52.0619 22.4783 52.4715 21.4926C52.8813 20.5069 52.9884 19.4224 52.7795 18.3758C52.5707 17.3295 52.0552 16.3683 51.2982 15.6139C50.5413 14.8595 49.5769 14.3457 48.527 14.1376C47.4769 13.9294 46.3888 14.0362 45.3997 14.4445C44.4107 14.8528 43.5653 15.5442 42.9706 16.4313C42.3759 17.3184 42.0584 18.3614 42.0584 19.4283C42.0656 20.8543 42.6389 22.2195 43.6532 23.2253C44.6676 24.2311 46.0402 24.7957 47.471 24.7957V24.8227ZM42.0584 30.1362H52.8836V32.8334H42.0584V30.1362ZM76.6988 32.8334H73.9925V30.9049C72.2472 32.1224 70.1691 32.7767 68.0387 32.7794C66.2221 32.7916 64.4317 32.3479 62.8324 31.4892C61.233 30.6304 59.8762 29.3845 58.887 27.8659C57.8977 26.3474 57.3078 24.6052 57.1717 22.7996C57.0354 20.9943 57.3573 19.1837 58.1076 17.5349C58.8579 15.8859 60.0126 14.4517 61.465 13.3644C62.9176 12.2771 64.6214 11.5715 66.4193 11.3128C68.2173 11.054 70.0518 11.2505 71.7535 11.884C73.4553 12.5174 74.9699 13.5674 76.1576 14.9375L74.1684 16.7041C73.2651 15.6975 72.1234 14.9323 70.8473 14.4783C69.5713 14.024 68.2015 13.8954 66.8628 14.104C65.524 14.3126 64.2591 14.852 63.183 15.6726C62.107 16.4933 61.2541 17.5692 60.7023 18.8027C60.1503 20.036 59.9169 21.3873 60.0233 22.7336C60.1296 24.0799 60.5722 25.3782 61.311 26.5102C62.0499 27.6422 63.0611 28.5721 64.2528 29.2148C65.4443 29.8575 66.7785 30.1928 68.1334 30.1901C69.2579 30.1924 70.3696 29.9526 71.3926 29.4871C72.4154 29.0215 73.3254 28.3413 74.0602 27.4929H66.7532V24.7957H76.7259L76.6988 32.8334ZM86.6579 11.3906C88.2637 11.3906 89.8333 11.8652 91.1685 12.7543C92.5036 13.6435 93.5443 14.9071 94.1588 16.3857C94.7732 17.8643 94.934 19.4913 94.6207 21.0608C94.3075 22.6304 93.5343 24.0722 92.3987 25.2038C91.2633 26.3355 89.8167 27.1061 88.2418 27.4183C86.667 27.7305 85.0346 27.5703 83.551 26.9579C82.0674 26.3454 80.7995 25.3083 79.9074 23.9776C79.0152 22.647 78.5391 21.0826 78.5391 19.4822C78.5319 18.4128 78.7376 17.3527 79.1441 16.3629C79.5505 15.3732 80.1499 14.4735 80.9073 13.7162C81.6648 12.9587 82.5655 12.3584 83.5572 11.9499C84.5489 11.5415 85.6119 11.3331 86.685 11.3367L86.6579 11.3906ZM86.6579 24.8766C87.7284 24.8766 88.7749 24.5602 89.665 23.9675C90.5551 23.3747 91.2488 22.5322 91.6584 21.5465C92.0682 20.5608 92.1753 19.4763 91.9664 18.4298C91.7576 17.3834 91.2421 16.4223 90.4851 15.6679C89.7282 14.9134 88.7638 14.3996 87.7139 14.1915C86.6639 13.9833 85.5757 14.0901 84.5867 14.4985C83.5976 14.9067 82.7522 15.5981 82.1575 16.4852C81.5628 17.3723 81.2453 18.4154 81.2453 19.4822C81.2667 20.9035 81.8501 22.259 82.8687 23.254C83.8872 24.2489 85.2588 24.803 86.685 24.7957L86.6579 24.8766ZM81.2453 30.1901H92.0705V32.8873H81.2453V30.1901ZM97.6589 11.3367H100.365V32.7794H97.6589V11.3367ZM104.113 11.3367H106.82C106.959 11.322 107.1 11.322 107.239 11.3367C108.373 11.2141 109.519 11.3309 110.604 11.6792C111.689 12.0277 112.689 12.5999 113.537 13.3588C114.386 14.1176 115.064 15.0461 115.529 16.0838C115.994 17.1214 116.234 18.2449 116.234 19.3811C116.234 20.5173 115.994 21.6408 115.529 22.6784C115.064 23.716 114.386 24.6445 113.537 25.4034C112.689 26.1622 111.689 26.7345 110.604 27.0829C109.519 27.4313 108.373 27.5481 107.239 27.4255H106.82V32.8199H104.113V11.3367ZM106.82 14.0339V24.7013H107.239C108.004 24.8027 108.781 24.7403 109.519 24.5179C110.257 24.2956 110.939 23.9187 111.519 23.4125C112.1 22.9062 112.564 22.2822 112.883 21.5823C113.201 20.8823 113.366 20.1227 113.366 19.3541C113.366 18.5855 113.201 17.8259 112.883 17.126C112.564 16.426 112.1 15.802 111.519 15.2958C110.939 14.7894 110.257 14.4126 109.519 14.1902C108.781 13.9679 108.004 13.9055 107.239 14.0069C107.092 14.0222 106.946 14.0539 106.806 14.1013L106.82 14.0339ZM126.318 12.8876L124.316 14.4654C123.97 14.1056 123.529 13.8516 123.044 13.7332C122.558 13.6147 122.049 13.6369 121.576 13.7969C121.102 13.9569 120.685 14.2482 120.372 14.6366C120.059 15.025 119.864 15.4943 119.81 15.9894V16.2051C119.81 17.3919 120.635 18.1876 122.245 18.2955C128.443 18.6731 131.284 21.5726 131.284 25.4026V25.6453C131.124 27.1612 130.531 28.5993 129.574 29.7888C128.618 30.9782 127.339 31.8687 125.889 32.3546C124.44 32.8404 122.881 32.9011 121.398 32.5292C119.914 32.1576 118.57 31.369 117.523 30.2575L119.593 28.6662C120.075 29.1809 120.664 29.585 121.318 29.8505C121.972 30.1159 122.676 30.2365 123.382 30.2036C124.685 30.2721 125.965 29.8361 126.953 28.9866C127.942 28.1373 128.563 26.9401 128.686 25.6453V25.4565C128.686 21.8558 125.141 21.195 122.07 20.8983C119.228 20.6285 117.185 18.8619 117.185 16.313V16.2051C117.285 14.8781 117.893 13.6401 118.882 12.7468C119.872 11.8533 121.168 11.3727 122.503 11.4041C123.21 11.3834 123.914 11.5105 124.569 11.7777C125.224 12.0448 125.815 12.4459 126.305 12.955L126.318 12.8876ZM141.88 30.0418C145.249 30.0418 147.915 26.414 147.915 21.9502V11.1614H150.621V21.9502C150.621 27.884 146.724 32.6715 141.934 32.6715C137.144 32.6715 133.246 27.884 133.246 21.9502V11.1614H135.953V21.9502C135.845 26.4815 138.51 30.1092 141.866 30.1092L141.88 30.0418ZM171.391 32.739H168.685V19.3878L162.447 27.4794L156.209 19.3878V32.7794H153.503V11.3367L162.434 23.056L171.364 11.3367L171.391 32.739Z"
            fill="white"/>
    <path
            d="M15.227 8.11347C15.227 6.16774 14.4516 4.3017 13.0711 2.92588C11.6906 1.55004 9.81824 0.7771 7.86596 0.7771C5.91368 0.7771 4.04137 1.55004 2.66089 2.92588C1.28042 4.3017 0.504883 6.16774 0.504883 8.11347V30.2979L6.56695 34.6269V45.173H9.16497V34.6269L15.227 30.2979V8.11347ZM12.629 20.5206L9.16497 23.973V20.7364L12.629 17.2839V20.5206ZM3.15704 17.2839L6.62107 20.7364V23.973L3.15704 20.5206V17.2839ZM12.629 13.6158L7.86596 18.3628L3.10291 13.5079V10.2712L7.86596 15.0183L12.629 10.2712V13.6158ZM7.86596 3.36641C8.91349 3.37102 9.93062 3.71776 10.7615 4.35349C11.5925 4.98922 12.1914 5.87889 12.4666 6.88625L7.86596 11.458L3.26529 6.88625C3.53042 5.86887 4.12503 4.96713 4.95689 4.32096C5.78874 3.67478 6.81131 3.32027 7.86596 3.31245V3.36641ZM3.10291 28.9898V24.1348L6.56695 27.5872V31.4442L3.10291 28.9898ZM9.16497 31.4577V27.5872L12.629 24.1348V28.9763L9.16497 31.4577Z"
            fill="white"/>
</svg>
