<svg width="41" height="40" viewBox="0 0 41 40" fill="none" xmlns="http://www.w3.org/2000/svg">
<path d="M20.666 2.5C11.0137 2.5 3.16602 10.3477 3.16602 20C3.16602 29.6523 11.0137 37.5 20.666 37.5C30.3184 37.5 38.166 29.6523 38.166 20C38.166 10.3477 30.3184 2.5 20.666 2.5Z" fill="#FDDD4C"/>
<path d="M13.0021 24.5627C12.6194 23.9834 13.5818 23.1066 13.1904 22.3704C12.9647 21.9458 12.5959 21.6813 12.1529 21.6257C11.7278 21.5724 11.2898 21.728 11.0107 22.0322C10.5699 22.5118 10.5014 23.1646 10.5867 23.3956C10.6179 23.4803 10.6669 23.5034 10.702 23.5084C10.942 23.5399 11.0771 22.9239 11.16 22.7956C11.3891 22.4419 11.9095 22.3348 12.2688 22.5673C12.9502 23.008 12.3594 23.7202 12.4103 24.3218C12.4599 24.9076 12.8249 25.143 13.1525 25.1677C13.4712 25.1798 13.6941 25.0027 13.7504 24.8735C13.8853 24.5649 13.3169 25.0394 13.0021 24.5627Z" fill="black"/>
<path d="M27.2381 19.2448C27.0594 19.2201 26.8641 19.2207 26.6609 19.2448C26.5066 19.0501 26.3684 18.7349 26.2904 18.367C26.1516 17.7125 26.1661 17.2384 26.5534 17.1768C26.9406 17.1152 27.1278 17.5112 27.2666 18.1657C27.3596 18.6057 27.3418 19.0099 27.2381 19.2448Z" fill="black"/>
<path d="M22.9968 19.6342C23.0121 19.7824 23.0175 19.9324 23.0132 20.0705C23.3879 20.0924 23.6533 20.2704 23.7239 20.3833C23.7601 20.4416 23.7457 20.4796 23.734 20.4972C23.6952 20.5575 23.6121 20.5482 23.4379 20.5287C23.2858 20.5116 23.122 20.4966 22.9518 20.5044C22.8592 20.7885 22.5845 20.8151 22.3916 20.605C22.2567 20.6461 21.992 20.8151 21.9131 20.6314C21.9124 20.5402 22.0077 20.4077 22.1804 20.2906C22.0625 20.0658 21.9835 19.8251 21.9369 19.5758C21.6921 19.62 21.4719 19.6885 21.2993 19.7423C21.2182 19.7675 20.8976 19.9123 20.86 19.7491C20.8349 19.6364 21.0104 19.4505 21.196 19.3163C21.4033 19.1691 21.6333 19.0644 21.8717 19.0041C21.8666 18.6491 21.9572 18.4014 22.2151 18.3604C22.5349 18.3095 22.7331 18.5557 22.8703 19.0117C23.2567 19.119 23.6427 19.3853 23.8131 19.6606C23.8794 19.7673 23.8922 19.8498 23.8493 19.8932C23.7422 20.0042 23.1488 19.6824 22.9968 19.6342Z" fill="black"/>
<path d="M25.5382 21.2297C25.7833 21.3485 26.053 21.3018 26.141 21.1252C26.2291 20.9487 26.1015 20.7094 25.8563 20.5906C25.6111 20.4718 25.3415 20.5186 25.2534 20.6951C25.1654 20.8717 25.293 21.1109 25.5382 21.2297Z" fill="black"/>
<path d="M26.745 20.353C26.7494 20.083 26.9149 19.8674 27.1138 19.8707C27.3127 19.8745 27.4704 20.0956 27.466 20.3651C27.4615 20.6346 27.296 20.8502 27.0971 20.8469C26.8982 20.8436 26.7405 20.6225 26.745 20.353Z" fill="black"/>
<path fill-rule="evenodd" clip-rule="evenodd" d="M32.1391 23.6602C32.1375 23.6546 32.143 23.674 32.1391 23.6602C32.5386 23.6602 33.166 24.1134 33.166 25.2084C33.166 26.298 32.708 27.5322 32.5999 27.8061C30.9501 31.7089 27.0125 33.8813 22.3221 33.7438C17.9493 33.6157 14.22 31.3382 12.588 27.6251C11.6013 27.6262 10.5838 27.1978 9.81047 26.5213C8.99531 25.8085 8.49273 24.8861 8.39466 23.9242C8.31833 23.1751 8.41138 22.4782 8.6493 21.8705L7.73273 21.1038C3.53823 17.608 16.6572 3.21456 20.8528 6.82695C20.8739 6.8451 22.2803 8.20689 22.2836 8.21019C24.3067 7.36232 29.7271 5.748 29.7332 9.50599C29.7354 10.7539 28.9297 12.2092 27.6387 13.5298C29.1307 14.8955 28.7373 16.8356 28.9749 18.6156L29.493 18.7575C30.4809 19.0308 31.1835 19.3955 31.5273 19.7519C31.8711 20.1077 32.0416 20.4526 32.1035 20.8568C32.1614 21.183 32.1536 21.7588 31.7179 22.4029C31.8748 22.8183 32.018 23.2326 32.1391 23.6602ZM12.5139 26.6126C12.6605 26.6159 12.8059 26.6065 12.9485 26.5823C14.4814 26.3244 14.8825 24.681 14.6301 23.0673C14.3448 21.2451 13.0962 20.6027 12.2487 20.5571C12.013 20.545 11.7941 20.5659 11.6135 20.6016C10.1008 20.9025 9.2466 22.173 9.41487 23.823C9.56698 25.3162 11.097 26.5752 12.5139 26.6126ZM9.0878 21.0493C9.5954 20.3217 10.425 19.7953 11.3667 19.6144C12.5652 16.4387 14.5666 13.5127 17.2155 11.4992C19.1812 9.88053 21.3013 8.71949 21.3013 8.71949C21.3013 8.71949 20.1596 7.41269 19.8147 7.31644C17.6935 6.75105 13.1124 9.86953 10.1871 13.9901C9.00367 15.6572 7.30926 18.6096 8.11941 20.1281C8.21915 20.3162 8.78469 20.7996 9.0878 21.0493ZM26.2853 25.8833C26.2887 25.9174 26.2675 25.9526 26.2369 25.9652C26.2369 25.9652 24.5324 26.7479 21.8251 25.9212C21.9224 26.7328 22.9066 27.0403 23.5941 27.1516C26.9489 27.7214 30.0853 25.8277 30.7913 25.3509C30.9125 25.269 30.7898 25.4795 30.7679 25.5104C29.9037 26.6109 27.5802 27.8853 24.5575 27.8847C23.2392 27.8842 21.9215 27.426 21.4378 26.7215C20.6873 25.6286 21.4005 24.0331 22.6514 24.1992C24.7658 24.4349 26.9334 24.2578 28.8907 23.361C30.5974 22.5789 31.2421 21.7187 31.1451 21.0218C30.9947 19.9419 29.3936 19.773 28.5843 19.5104C28.2321 19.3955 28.0583 19.3036 28.0187 18.6497C28.0015 18.3643 27.9513 17.3682 27.9329 16.9563C27.9006 16.2352 27.8126 15.2491 27.193 14.8421C27.0314 14.7359 26.852 14.6848 26.6631 14.6749C26.5125 14.6677 26.4232 14.6884 26.3752 14.6995C26.3644 14.702 26.3557 14.704 26.3489 14.7051C26.0143 14.7613 25.8093 14.9305 25.5675 15.1301C25.5536 15.1416 25.5395 15.1532 25.5253 15.1649C24.7525 15.8007 24.1 15.9047 23.374 15.8739C23.1479 15.8644 22.9149 15.8418 22.6691 15.818C22.443 15.7961 22.206 15.7731 21.9538 15.7584L21.6456 15.7408C20.4299 15.6792 19.1261 16.7154 18.9093 18.1872C18.6672 19.83 19.5854 20.8362 20.1826 21.4906C20.3301 21.6523 20.4581 21.7926 20.5441 21.9156C20.5993 21.9898 20.6633 22.0943 20.6633 22.1939C20.6633 22.3127 20.5853 22.4067 20.509 22.487C19.2687 23.746 18.872 25.7463 19.3395 27.4134C19.398 27.6213 19.4721 27.8204 19.5595 28.0107C20.6561 30.5401 24.0583 31.7182 27.3813 30.6468C29.7103 29.8958 31.768 28.0813 32.187 25.578C32.2868 24.9257 32.1402 24.6738 31.9408 24.5523C31.7296 24.4241 31.4766 24.4687 31.4766 24.4687C31.4766 24.4687 31.3613 23.6893 31.0348 22.9809C30.0658 23.7355 28.8189 24.2657 27.8694 24.5347C26.3482 24.9654 24.7051 25.1332 23.1331 24.93C22.4956 24.8476 22.0672 24.7923 21.8836 25.3811C23.9803 26.139 26.1995 25.8145 26.1995 25.8145C26.2424 25.8101 26.2809 25.8409 26.2853 25.8833ZM20.236 11.1758C19.0893 11.7549 17.8089 12.7862 16.7692 13.9725C16.7324 14.0149 16.787 14.0732 16.8321 14.0407C17.7303 13.3956 18.9617 12.7961 20.5747 12.4078C22.3817 11.9727 24.1212 12.1553 25.1838 12.3957C25.2373 12.4078 25.2707 12.317 25.2233 12.2906C24.5213 11.9018 23.4437 11.6378 22.6792 11.6323C22.6419 11.6317 22.6207 11.5888 22.643 11.5591C22.7751 11.3837 22.9561 11.2104 23.1216 11.085C23.1584 11.0564 23.1361 10.9976 23.0893 11.0003C22.1383 11.058 19.9663 12.0484 19.9741 12.0123C20.0298 11.7483 20.2053 11.3996 20.2961 11.2368C20.3179 11.1983 20.2755 11.156 20.236 11.1758Z" fill="black"/>
</svg>
