<svg xmlns="http://www.w3.org/2000/svg" width="140" height="36" viewBox="0 0 140 36"
     fill="none">
    <path
            d="M45.1564 17.7607C45.1564 13.058 43.2882 8.5478 39.9629 5.22245C36.6375 1.8971 32.1274 0.0289313 27.4246 0.0289307C22.7219 0.02893 18.2118 1.8971 14.8864 5.22245C11.561 8.5478 9.69287 13.058 9.69287 17.7607H15.2341C17.0703 17.7607 18.5023 16.2219 19.1749 14.5133C19.6165 13.3915 20.2865 12.3606 21.1555 11.4916C22.8181 9.82889 25.0733 8.89482 27.4246 8.89482C29.776 8.89482 32.0311 9.82889 33.6938 11.4916C35.3565 13.1542 36.2905 15.4094 36.2905 17.7607H45.1564Z"
            fill="url(#paint0_linear_4737_3457)"/>
    <path
            d="M34.944 24.5462C35.8351 22.3949 36.2938 20.0891 36.2938 17.7606H45.1587C45.1587 27.5536 37.2199 35.4923 27.4269 35.4923C25.8933 35.4923 24.4051 35.2976 22.9858 34.9316C23.7888 34.7247 24.5781 34.4613 25.3476 34.1426C27.4989 33.2515 29.4537 31.9454 31.1002 30.2989C32.7468 28.6523 34.053 26.6976 34.944 24.5462Z"
            fill="#FBCF8E"/>
    <path
            d="M0.82959 17.7606C0.82959 20.0892 1.28824 22.395 2.17934 24.5463C3.07045 26.6977 4.37655 28.6524 6.02311 30.299C7.66965 31.9454 9.62439 33.2516 11.7757 34.1427C13.927 35.0338 16.2328 35.4924 18.5614 35.4924C20.8899 35.4924 23.1957 35.0338 25.347 34.1427C27.4983 33.2516 29.4531 31.9454 31.0996 30.299C32.7462 28.6524 34.0522 26.6977 34.9433 24.5463C35.8345 22.395 36.2932 20.0892 36.2932 17.7606H30.7519C28.9157 17.7606 27.4837 19.2994 26.8111 21.0079C26.792 21.0566 26.7724 21.1051 26.7524 21.1535C26.3068 22.2291 25.6538 23.2066 24.8304 24.0298C24.0072 24.853 23.0298 25.5062 21.9542 25.9517C20.8786 26.3973 19.7257 26.6266 18.5614 26.6266C17.3971 26.6266 16.2442 26.3973 15.1686 25.9517C14.0929 25.5062 13.1155 24.853 12.2922 24.0298C11.469 23.2066 10.8159 22.2291 10.3704 21.1535C9.92479 20.0778 9.69547 18.9249 9.69547 17.7606H0.82959Z"
            fill="url(#paint1_linear_4737_3457)"/>
    <path
            d="M0.83252 17.7607C0.83252 7.96769 8.77128 0.0289307 18.5642 0.0289307C20.0975 0.0289307 21.5853 0.22353 23.0044 0.589394C19.9594 1.37381 17.1505 2.96125 14.8892 5.22246C11.5639 8.54777 9.69571 13.058 9.69571 17.7607H0.83252Z"
            fill="#73E5E2"/>
    <path
            d="M62.6666 8.71681V17.9275H64.6875C65.3612 17.9275 65.8793 17.7461 66.2421 17.3834C66.6048 17.0207 66.7862 16.347 66.7862 15.3625V11.2818C66.7862 10.2973 66.6048 9.62363 66.2421 9.2609C65.8793 8.89817 65.3612 8.71681 64.6875 8.71681H62.6666ZM64.6875 4.83044C66.838 4.83044 68.4314 5.40044 69.4678 6.54044C70.53 7.68044 71.0612 9.35158 71.0612 11.5539V15.0905C71.0612 17.2927 70.53 18.9639 69.4678 20.1039C68.4314 21.2439 66.838 21.8139 64.6875 21.8139H62.6666V32.035H58.3916V4.83044H64.6875Z"
            fill="black"/>
    <path
            d="M79.6025 8.71681V17.0725H81.2736C82.0768 17.0725 82.6986 16.8652 83.1391 16.4507C83.6055 16.0361 83.8386 15.2848 83.8386 14.1966V11.515C83.8386 10.5304 83.6573 9.81795 83.2946 9.37749C82.9577 8.93704 82.4136 8.71681 81.6623 8.71681H79.6025ZM84.2661 32.035C84.2143 31.8537 84.1625 31.6853 84.1107 31.5298C84.0589 31.3743 84.0071 31.18 83.9552 30.9468C83.9293 30.7137 83.9034 30.4157 83.8775 30.053C83.8775 29.6903 83.8775 29.2368 83.8775 28.6928V24.4177C83.8775 23.1482 83.6573 22.2543 83.2168 21.7362C82.7764 21.218 82.0639 20.9589 81.0793 20.9589H79.6025V32.035H75.3275V4.83044H81.7789C84.0071 4.83044 85.6134 5.34862 86.598 6.38499C87.6084 7.42135 88.1137 8.98886 88.1137 11.0875V13.225C88.1137 16.0232 87.1809 17.8627 85.3155 18.7436C86.4036 19.1841 87.1421 19.9096 87.5307 20.92C87.9452 21.9046 88.1525 23.1093 88.1525 24.5343V28.7316C88.1525 29.4053 88.1784 30.0012 88.2302 30.5193C88.2821 31.0116 88.4116 31.5168 88.6189 32.035H84.2661Z"
            fill="black"/>
    <path
            d="M97.5252 16.2952H103.394V20.1816H97.5252V28.1487H104.909V32.035H93.2502V4.83044H104.909V8.71681H97.5252V16.2952Z"
            fill="black"/>
    <path
            d="M109.3 11.3595C109.3 9.15726 109.819 7.47317 110.855 6.30726C111.917 5.11544 113.498 4.51953 115.596 4.51953C117.695 4.51953 119.262 5.11544 120.299 6.30726C121.361 7.47317 121.892 9.15726 121.892 11.3595V12.4089H117.85V11.0875C117.85 10.1029 117.656 9.41636 117.267 9.02772C116.905 8.61317 116.387 8.4059 115.713 8.4059C115.039 8.4059 114.508 8.61317 114.119 9.02772C113.757 9.41636 113.575 10.1029 113.575 11.0875C113.575 12.0202 113.783 12.8493 114.197 13.5748C114.612 14.2743 115.13 14.948 115.752 15.5957C116.374 16.2175 117.034 16.8523 117.734 17.5C118.459 18.1218 119.133 18.8084 119.755 19.5598C120.377 20.3111 120.895 21.1661 121.309 22.1248C121.724 23.0834 121.931 24.2105 121.931 25.5059C121.931 27.7082 121.387 29.4053 120.299 30.5971C119.237 31.763 117.656 32.3459 115.557 32.3459C113.459 32.3459 111.865 31.763 110.777 30.5971C109.715 29.4053 109.184 27.7082 109.184 25.5059V23.6405H113.226V25.778C113.226 26.7625 113.42 27.4491 113.809 27.8377C114.223 28.2264 114.767 28.4207 115.441 28.4207C116.114 28.4207 116.646 28.2264 117.034 27.8377C117.449 27.4491 117.656 26.7625 117.656 25.778C117.656 24.8452 117.449 24.0291 117.034 23.3296C116.62 22.6041 116.102 21.9305 115.48 21.3086C114.858 20.6609 114.184 20.0261 113.459 19.4043C112.759 18.7566 112.099 18.0571 111.477 17.3057C110.855 16.5543 110.337 15.6993 109.922 14.7407C109.508 13.782 109.3 12.655 109.3 11.3595Z"
            fill="black"/>
    <path
            d="M126.317 11.3595C126.317 9.15726 126.874 7.47317 127.988 6.30726C129.102 5.11544 130.708 4.51953 132.807 4.51953C134.906 4.51953 136.512 5.11544 137.626 6.30726C138.74 7.47317 139.297 9.15726 139.297 11.3595V25.5059C139.297 27.7082 138.74 29.4053 137.626 30.5971C136.512 31.763 134.906 32.3459 132.807 32.3459C130.708 32.3459 129.102 31.763 127.988 30.5971C126.874 29.4053 126.317 27.7082 126.317 25.5059V11.3595ZM130.592 25.778C130.592 26.7625 130.786 27.4621 131.175 27.8766C131.589 28.2653 132.133 28.4596 132.807 28.4596C133.481 28.4596 134.012 28.2653 134.4 27.8766C134.815 27.4621 135.022 26.7625 135.022 25.778V11.0875C135.022 10.1029 134.815 9.41636 134.4 9.02772C134.012 8.61317 133.481 8.4059 132.807 8.4059C132.133 8.4059 131.589 8.61317 131.175 9.02772C130.786 9.41636 130.592 10.1029 130.592 11.0875V25.778Z"
            fill="black"/>
    <defs>
        <linearGradient id="paint0_linear_4737_3457" x1="45.1564" y1="8.89482" x2="9.69287"
                        y2="8.89482" gradientUnits="userSpaceOnUse">
            <stop stop-color="#73E5E2"/>
            <stop offset="1" stop-color="#394F87"/>
        </linearGradient>
        <linearGradient id="paint1_linear_4737_3457" x1="0.829591" y1="26.6266" x2="36.2932"
                        y2="26.6266" gradientUnits="userSpaceOnUse">
            <stop stop-color="#FBDC8E"/>
            <stop offset="1" stop-color="#FB958E"/>
        </linearGradient>
    </defs>
</svg>
