<svg xmlns="http://www.w3.org/2000/svg" width="168" height="40" viewBox="0 0 168 40"
     fill="none">
    <path
            d="M28.4258 18.5667C29.853 17.3716 30.7606 15.5764 30.7606 13.5692C30.7606 11.5621 29.853 9.76696 28.4258 8.57179C28.5894 8.49257 28.7467 8.40662 28.8967 8.31346C29.8434 7.72483 30.9607 7.38489 32.1575 7.38489C35.573 7.38489 38.3419 10.1538 38.3419 13.5692C38.3419 16.9847 35.573 19.7536 32.1575 19.7536C30.9607 19.7536 29.8434 19.4136 28.8967 18.8251C28.7467 18.7319 28.5894 18.6459 28.4258 18.5667Z"
            fill="url(#paint0_linear_4737_3463)"/>
    <path
            d="M26.7065 14.5422C27.3449 12.7936 27.2333 10.7852 26.2297 9.04692C25.2261 7.30868 23.5426 6.20782 21.709 5.88639C21.8111 5.73604 21.9043 5.58289 21.9875 5.42722C22.5131 4.44414 23.3109 3.59105 24.3473 2.99267C27.3052 1.2849 31.0876 2.29837 32.7953 5.25629C34.503 8.21423 33.4896 11.9966 30.5316 13.7043C29.4952 14.3027 28.3575 14.5669 27.2434 14.5306C27.067 14.5248 26.8877 14.5291 26.7065 14.5422Z"
            fill="url(#paint1_linear_4737_3463)"/>
    <path
            d="M23.2091 11.9159C22.8877 10.0823 21.7868 8.39871 20.0485 7.39513C18.3103 6.39156 16.3019 6.28 14.5532 6.9184C14.5665 6.73718 14.5707 6.55787 14.5649 6.38148C14.5285 5.26731 14.7928 4.12966 15.3912 3.09321C17.099 0.135279 20.8813 -0.878183 23.8392 0.829579C26.7971 2.53734 27.8107 6.31964 26.1028 9.2776C25.5044 10.314 24.6514 11.1117 23.6682 11.6373C23.5127 11.7205 23.3595 11.8138 23.2091 11.9159Z"
            fill="url(#paint2_linear_4737_3463)"/>
    <path
            d="M18.8621 11.3913C17.6669 9.96412 15.8717 9.05653 13.8645 9.05653C11.8573 9.05653 10.0622 9.96412 8.86706 11.3913C8.78789 11.2278 8.70191 11.0704 8.60872 10.9204C8.02012 9.97372 7.68018 8.85639 7.68018 7.65959C7.68018 4.24405 10.449 1.47522 13.8645 1.47522C17.2801 1.47522 20.0489 4.24405 20.0489 7.65959C20.0489 8.85639 19.7089 9.97372 19.1204 10.9204C19.0271 11.0704 18.9412 11.2278 18.8621 11.3913Z"
            fill="url(#paint3_linear_4737_3463)"/>
    <path
            d="M14.8392 13.1096C13.0905 12.4712 11.0821 12.5828 9.34381 13.5863C7.60557 14.5899 6.50471 16.2735 6.18328 18.107C6.03294 18.005 5.87977 17.9117 5.72411 17.8285C4.74103 17.3029 3.88793 16.5052 3.28955 15.4688C1.58177 12.5108 2.59524 8.72853 5.55317 7.02075C8.51111 5.31297 12.2934 6.32644 14.0012 9.2844C14.5996 10.3208 14.8639 11.4585 14.8274 12.5726C14.8217 12.749 14.8259 12.9283 14.8392 13.1096Z"
            fill="url(#paint4_linear_4737_3463)"/>
    <path
            d="M12.2128 16.6097C10.3792 16.9311 8.69563 18.032 7.69205 19.7702C6.68848 21.5085 6.57692 23.5169 7.21533 25.2656C7.03409 25.2523 6.85476 25.2481 6.67834 25.2538C5.56419 25.2903 4.42653 25.026 3.39009 24.4276C0.432154 22.7198 -0.58131 18.9375 1.12645 15.9795C2.83422 13.0217 6.61651 12.0081 9.57445 13.716C10.6109 14.3143 11.4086 15.1674 11.9342 16.1504C12.0174 16.3061 12.1108 16.4593 12.2128 16.6097Z"
            fill="url(#paint5_linear_4737_3463)"/>
    <path
            d="M11.6895 20.9549C10.2623 22.1501 9.35469 23.9452 9.35469 25.9523C9.35469 27.9595 10.2623 29.7547 11.6895 30.9498C11.526 31.0289 11.3685 31.115 11.2186 31.2082C10.272 31.7967 9.15458 32.1367 7.95779 32.1367C4.54227 32.1367 1.77344 29.3679 1.77344 25.9523C1.77344 22.5368 4.54227 19.7679 7.95779 19.7679C9.15458 19.7679 10.272 20.1079 11.2186 20.6966C11.3685 20.7897 11.526 20.8757 11.6895 20.9549Z"
            fill="url(#paint6_linear_4737_3463)"/>
    <path
            d="M13.4048 24.9781C12.7663 26.7268 12.8779 28.7352 13.8815 30.4735C14.8851 32.2118 16.5687 33.3126 18.4022 33.634C18.3001 33.7844 18.2069 33.9376 18.1237 34.0933C17.5981 35.0763 16.8003 35.9294 15.7639 36.5278C12.806 38.2356 9.02367 37.222 7.31591 34.2642C5.60814 31.3062 6.62161 27.524 9.57954 25.8161C10.616 25.2177 11.7537 24.9535 12.8678 24.9899C13.0442 24.9956 13.2235 24.9914 13.4048 24.9781Z"
            fill="url(#paint7_linear_4737_3463)"/>
    <path
            d="M16.9064 27.6056C17.2278 29.4392 18.3287 31.1228 20.0669 32.1262C21.8051 33.1298 23.8137 33.2414 25.5623 32.603C25.5491 32.7843 25.5449 32.9635 25.5506 33.14C25.587 34.2541 25.3228 35.3918 24.7244 36.4282C23.0165 39.3862 19.2343 40.3996 16.2763 38.6918C13.3183 36.9841 12.3049 33.2018 14.0127 30.2439C14.6111 29.2075 15.4642 28.4097 16.4472 27.8842C16.6029 27.8009 16.7561 27.7076 16.9064 27.6056Z"
            fill="url(#paint8_linear_4737_3463)"/>
    <path
            d="M21.2488 28.132C22.444 29.5592 24.2392 30.4668 26.2464 30.4668C28.2536 30.4668 30.0487 29.5592 31.2439 28.132C31.323 28.2955 31.409 28.4529 31.5022 28.6028C32.0908 29.5495 32.4307 30.6669 32.4307 31.8637C32.4307 35.2792 29.6619 38.048 26.2464 38.048C22.8308 38.048 20.062 35.2792 20.062 31.8637C20.062 30.6669 20.402 29.5495 20.9905 28.6028C21.0838 28.4529 21.1697 28.2955 21.2488 28.132Z"
            fill="url(#paint9_linear_4737_3463)"/>
    <path
            d="M25.2764 26.4137C27.025 27.0521 29.0335 26.9405 30.7717 25.937C32.5099 24.9334 33.6108 23.2498 33.9322 21.4163C34.0825 21.5182 34.2357 21.6116 34.3914 21.6948C35.3745 22.2204 36.2276 23.0181 36.826 24.0545C38.5338 27.0125 37.5203 30.7948 34.5624 32.5026C31.6044 34.2103 27.8222 33.1969 26.1143 30.2389C25.5159 29.2025 25.2517 28.0648 25.288 26.9507C25.2939 26.7743 25.2896 26.595 25.2764 26.4137Z"
            fill="url(#paint10_linear_4737_3463)"/>
    <path
            d="M32.4253 19.7466C32.424 19.7488 32.4228 19.751 32.4215 19.7531C31.418 21.4914 29.7344 22.5922 27.9009 22.9137C28.0028 23.0641 28.0962 23.2173 28.1794 23.3728C28.705 24.356 29.5027 25.209 30.5392 25.8074C33.4971 27.5153 37.2794 26.5017 38.9872 23.5438C40.4512 21.0079 39.9152 17.8661 37.8686 15.9451C36.9695 18.1028 34.8831 19.6419 32.4253 19.7466Z"
            fill="url(#paint11_linear_4737_3463)"/>
    <path
            d="M53.9019 33.397V8.45771H63.7412C65.6246 8.45771 67.232 8.79462 68.5634 9.46844C69.9029 10.1341 70.9218 11.0799 71.6199 12.3058C72.3262 13.5235 72.6794 14.9564 72.6794 16.6044C72.6794 18.2605 72.3222 19.6853 71.6078 20.8786C70.8934 22.0639 69.8583 22.9731 68.5025 23.6064C67.1549 24.2396 65.5231 24.5562 63.6072 24.5562H57.0193V20.3185H62.7548C63.7615 20.3185 64.5977 20.1805 65.2634 19.9044C65.929 19.6284 66.4243 19.2144 66.749 18.6624C67.0818 18.1103 67.2483 17.4243 67.2483 16.6044C67.2483 15.7763 67.0818 15.0781 66.749 14.5099C66.4243 13.9416 65.925 13.5113 65.2512 13.2191C64.5855 12.9187 63.7452 12.7685 62.7305 12.7685H59.1747V33.397H53.9019ZM67.37 22.0477L73.5683 33.397H67.7475L61.6832 22.0477H67.37Z"
            fill="white"/>
    <path
            d="M76.3082 33.397V14.6925H81.4958V33.397H76.3082ZM78.9142 12.2814C78.143 12.2814 77.4813 12.0257 76.9293 11.5142C76.3854 10.9947 76.1134 10.3736 76.1134 9.6511C76.1134 8.93669 76.3854 8.32376 76.9293 7.81231C77.4813 7.29274 78.143 7.03296 78.9142 7.03296C79.6854 7.03296 80.343 7.29274 80.8869 7.81231C81.439 8.32376 81.715 8.93669 81.715 9.6511C81.715 10.3736 81.439 10.9947 80.8869 11.5142C80.343 12.0257 79.6854 12.2814 78.9142 12.2814Z"
            fill="white"/>
    <path
            d="M92.5437 33.7014C91.123 33.7014 89.8363 33.3361 88.6835 32.6055C87.5388 31.8667 86.6296 30.7829 85.9558 29.3541C85.2901 27.9172 84.9572 26.1555 84.9572 24.0691C84.9572 21.9259 85.3022 20.1439 85.9923 18.7232C86.6823 17.2944 87.5997 16.2269 88.7444 15.5206C89.8972 14.8062 91.1596 14.449 92.5316 14.449C93.5788 14.449 94.4515 14.6276 95.1497 14.9848C95.856 15.3339 96.4243 15.7723 96.8545 16.2999C97.2929 16.8195 97.6258 17.331 97.8531 17.8343H98.0114V8.45771H103.187V33.397H98.0723V30.4014H97.8531C97.6095 30.9209 97.2645 31.4364 96.818 31.9479C96.3796 32.4512 95.8073 32.8693 95.101 33.2021C94.4028 33.535 93.5504 33.7014 92.5437 33.7014ZM94.1877 29.5733C95.0239 29.5733 95.7301 29.346 96.3065 28.8914C96.8911 28.4286 97.3376 27.7832 97.646 26.9552C97.9627 26.1271 98.121 25.157 98.121 24.0448C98.121 22.9326 97.9667 21.9665 97.6582 21.1465C97.3497 20.3266 96.9032 19.6934 96.3187 19.2469C95.7342 18.8004 95.0239 18.5771 94.1877 18.5771C93.3353 18.5771 92.6168 18.8085 92.0323 19.2712C91.4478 19.734 91.0053 20.3753 90.7049 21.1953C90.4046 22.0152 90.2544 22.965 90.2544 24.0448C90.2544 25.1326 90.4046 26.0946 90.7049 26.9308C91.0134 27.7589 91.4559 28.4083 92.0323 28.8792C92.6168 29.3419 93.3353 29.5733 94.1877 29.5733Z"
            fill="white"/>
    <path
            d="M115.903 33.7623C114.011 33.7623 112.376 33.3605 110.996 32.5567C109.624 31.7449 108.564 30.6165 107.817 29.1714C107.07 27.7183 106.697 26.0337 106.697 24.1178C106.697 22.1857 107.07 20.4971 107.817 19.052C108.564 17.5989 109.624 16.4704 110.996 15.6667C112.376 14.8549 114.011 14.449 115.903 14.449C117.795 14.449 119.426 14.8549 120.798 15.6667C122.178 16.4704 123.242 17.5989 123.989 19.052C124.736 20.4971 125.109 22.1857 125.109 24.1178C125.109 26.0337 124.736 27.7183 123.989 29.1714C123.242 30.6165 122.178 31.7449 120.798 32.5567C119.426 33.3605 117.795 33.7623 115.903 33.7623ZM115.927 29.7438C116.788 29.7438 117.506 29.5002 118.083 29.0131C118.659 28.5179 119.093 27.8441 119.386 26.9917C119.686 26.1393 119.836 25.1691 119.836 24.0813C119.836 22.9934 119.686 22.0233 119.386 21.1709C119.093 20.3185 118.659 19.6447 118.083 19.1495C117.506 18.6542 116.788 18.4066 115.927 18.4066C115.059 18.4066 114.328 18.6542 113.735 19.1495C113.151 19.6447 112.708 20.3185 112.408 21.1709C112.116 22.0233 111.97 22.9934 111.97 24.0813C111.97 25.1691 112.116 26.1393 112.408 26.9917C112.708 27.8441 113.151 28.5179 113.735 29.0131C114.328 29.5002 115.059 29.7438 115.927 29.7438Z"
            fill="white"/>
    <path
            d="M128.482 33.397V14.6925H133.511V17.9561H133.706C134.047 16.7952 134.62 15.9184 135.423 15.3258C136.227 14.725 137.153 14.4246 138.2 14.4246C138.46 14.4246 138.74 14.4409 139.04 14.4733C139.34 14.5058 139.604 14.5505 139.832 14.6073V19.2103C139.588 19.1373 139.251 19.0723 138.821 19.0155C138.391 18.9587 137.997 18.9303 137.64 18.9303C136.876 18.9303 136.195 19.0967 135.594 19.4295C135.001 19.7543 134.53 20.2089 134.181 20.7934C133.84 21.3779 133.67 22.0517 133.67 22.8148V33.397H128.482Z"
            fill="white"/>
    <path
            d="M142.514 33.397V14.6925H147.701V33.397H142.514ZM145.12 12.2814C144.348 12.2814 143.687 12.0257 143.135 11.5142C142.591 10.9947 142.319 10.3736 142.319 9.6511C142.319 8.93669 142.591 8.32376 143.135 7.81231C143.687 7.29274 144.348 7.03296 145.12 7.03296C145.891 7.03296 146.548 7.29274 147.092 7.81231C147.644 8.32376 147.92 8.93669 147.92 9.6511C147.92 10.3736 147.644 10.9947 147.092 11.5142C146.548 12.0257 145.891 12.2814 145.12 12.2814Z"
            fill="white"/>
    <path
            d="M157.19 33.7501C155.997 33.7501 154.934 33.5431 154 33.1291C153.066 32.7069 152.328 32.0859 151.784 31.2659C151.248 30.4379 150.98 29.4069 150.98 28.1729C150.98 27.1338 151.171 26.261 151.552 25.5548C151.934 24.8485 152.453 24.2802 153.111 23.8499C153.769 23.4197 154.515 23.0949 155.352 22.8757C156.196 22.6565 157.081 22.5023 158.006 22.413C159.094 22.2993 159.971 22.1938 160.637 22.0964C161.302 21.9908 161.785 21.8366 162.086 21.6336C162.386 21.4307 162.536 21.1303 162.536 20.7325V20.6594C162.536 19.8882 162.293 19.2915 161.806 18.8694C161.327 18.4472 160.645 18.2361 159.76 18.2361C158.826 18.2361 158.083 18.4432 157.531 18.8572C156.979 19.2631 156.614 19.7746 156.435 20.3915L151.638 20.0019C151.881 18.8653 152.36 17.883 153.074 17.0549C153.789 16.2188 154.71 15.5774 155.839 15.1309C156.975 14.6763 158.29 14.449 159.784 14.449C160.823 14.449 161.818 14.5708 162.768 14.8143C163.726 15.0579 164.574 15.4354 165.313 15.9468C166.06 16.4583 166.648 17.1158 167.078 17.9195C167.509 18.7151 167.724 19.669 167.724 20.7812V33.397H162.804V30.8032H162.658C162.358 31.3877 161.956 31.9032 161.452 32.3497C160.949 32.7881 160.344 33.1331 159.638 33.3848C158.932 33.6284 158.116 33.7501 157.19 33.7501ZM158.676 30.17C159.439 30.17 160.113 30.0198 160.697 29.7194C161.282 29.4109 161.741 28.9969 162.074 28.4773C162.406 27.9578 162.573 27.3692 162.573 26.7116V24.7267C162.41 24.8322 162.187 24.9296 161.903 25.0189C161.627 25.1001 161.314 25.1773 160.965 25.2503C160.616 25.3153 160.267 25.3762 159.918 25.433C159.569 25.4817 159.252 25.5263 158.968 25.5669C158.359 25.6562 157.828 25.7983 157.373 25.9931C156.918 26.188 156.565 26.4518 156.314 26.7847C156.062 27.1094 155.936 27.5153 155.936 28.0024C155.936 28.7087 156.192 29.2486 156.703 29.622C157.223 29.9873 157.88 30.17 158.676 30.17Z"
            fill="white"/>
    <defs>
        <linearGradient id="paint0_linear_4737_3463" x1="29.2001" y1="7.38489" x2="29.2001"
                        y2="19.7536" gradientUnits="userSpaceOnUse">
            <stop stop-color="#25136D"/>
            <stop offset="1" stop-color="#3D9BA2"/>
        </linearGradient>
        <linearGradient id="paint1_linear_4737_3463" x1="21.7861" y1="4.47135" x2="27.9705"
                        y2="15.183" gradientUnits="userSpaceOnUse">
            <stop stop-color="#25136D"/>
            <stop offset="1" stop-color="#3D9BA2"/>
        </linearGradient>
        <linearGradient id="paint2_linear_4737_3463" x1="13.9125" y1="5.65438" x2="24.6242"
                        y2="11.8387" gradientUnits="userSpaceOnUse">
            <stop stop-color="#25136D"/>
            <stop offset="1" stop-color="#3D9BA2"/>
        </linearGradient>
        <linearGradient id="paint3_linear_4737_3463" x1="7.68018" y1="10.6169" x2="20.0489"
                        y2="10.6169" gradientUnits="userSpaceOnUse">
            <stop stop-color="#25136D"/>
            <stop offset="1" stop-color="#3D9BA2"/>
        </linearGradient>
        <linearGradient id="paint4_linear_4737_3463" x1="4.76824" y1="18.0299" x2="15.4799"
                        y2="11.8455" gradientUnits="userSpaceOnUse">
            <stop stop-color="#25136D"/>
            <stop offset="1" stop-color="#3D9BA2"/>
        </linearGradient>
        <linearGradient id="paint5_linear_4737_3463" x1="5.95128" y1="25.9062" x2="12.1357"
                        y2="15.1946" gradientUnits="userSpaceOnUse">
            <stop stop-color="#25136D"/>
            <stop offset="1" stop-color="#3D9BA2"/>
        </linearGradient>
        <linearGradient id="paint6_linear_4737_3463" x1="10.9152" y1="32.1367" x2="10.9152"
                        y2="19.7679" gradientUnits="userSpaceOnUse">
            <stop stop-color="#25136D"/>
            <stop offset="1" stop-color="#3D9BA2"/>
        </linearGradient>
        <linearGradient id="paint7_linear_4737_3463" x1="18.3251" y1="35.0491" x2="12.1407"
                        y2="24.3375" gradientUnits="userSpaceOnUse">
            <stop stop-color="#25136D"/>
            <stop offset="1" stop-color="#3D9BA2"/>
        </linearGradient>
        <linearGradient id="paint8_linear_4737_3463" x1="26.203" y1="33.8671" x2="15.4914"
                        y2="27.6826" gradientUnits="userSpaceOnUse">
            <stop stop-color="#25136D"/>
            <stop offset="1" stop-color="#3D9BA2"/>
        </linearGradient>
        <linearGradient id="paint9_linear_4737_3463" x1="32.4307" y1="28.9063" x2="20.062"
                        y2="28.9063" gradientUnits="userSpaceOnUse">
            <stop stop-color="#25136D"/>
            <stop offset="1" stop-color="#3D9BA2"/>
        </linearGradient>
        <linearGradient id="paint10_linear_4737_3463" x1="35.3473" y1="21.4934" x2="24.6357"
                        y2="27.6778" gradientUnits="userSpaceOnUse">
            <stop stop-color="#25136D"/>
            <stop offset="1" stop-color="#3D9BA2"/>
        </linearGradient>
        <linearGradient id="paint11_linear_4737_3463" x1="34.1624" y1="13.6171" x2="27.978"
                        y2="24.3288" gradientUnits="userSpaceOnUse">
            <stop stop-color="#25136D"/>
            <stop offset="1" stop-color="#3D9BA2"/>
        </linearGradient>
    </defs>
</svg>
