<svg width="41" height="40" viewBox="0 0 41 40" fill="none" xmlns="http://www.w3.org/2000/svg">
<path fill-rule="evenodd" clip-rule="evenodd" d="M16.8196 14.5491C16.8011 14.5491 16.7652 14.5491 16.7466 14.5491C16.4388 14.5116 16.1854 14.2295 16.1854 13.9099C16.1668 13.6089 16.0036 6.5759 19.971 4.97755C20.9675 4.58261 21.8923 4.65779 22.6712 5.24085C23.6306 5.93661 24.3192 7.32813 24.7359 9.35906C25.0252 10.7882 25.0796 12.0293 25.0796 12.0858C25.0981 12.3866 24.8633 12.6123 24.5542 12.5559C24.2463 12.5182 23.9929 12.2362 23.9929 11.9353C23.9385 10.6566 23.5218 7.14013 22.1458 6.12461C21.7106 5.80496 21.1666 5.76731 20.515 6.03061C17.1089 7.4033 17.2721 14.0039 17.2721 14.079C17.2721 14.3423 17.0916 14.5491 16.8196 14.5491Z" fill="#595961"/>
<path opacity="0.46" fill-rule="evenodd" clip-rule="evenodd" d="M22.4702 5.27851C21.7457 4.75192 20.895 4.67674 19.9702 5.03404C18.358 5.69215 17.2169 7.42226 16.6556 10.055C16.239 11.9918 16.2933 13.7407 16.2933 13.8159C16.2933 13.9099 16.3292 14.004 16.4022 14.0792C16.4739 14.1543 16.5468 14.2108 16.6371 14.2108C16.6556 14.2108 16.6742 14.2108 16.6915 14.2108C16.8547 14.2108 16.982 14.0792 16.982 13.9099C16.982 13.8347 16.8189 7.12132 20.3152 5.71097C21.0212 5.42898 21.6369 5.4665 22.145 5.84262C23.6113 6.9145 24.0465 10.5439 24.1009 11.8414C24.1009 12.0294 24.2641 12.2175 24.4632 12.2362C24.6449 12.2551 24.7895 12.1234 24.7895 11.9354C24.771 11.7098 24.572 6.8205 22.4702 5.27851Z" fill="#B2B2C2"/>
<path opacity="0.46" fill-rule="evenodd" clip-rule="evenodd" d="M16.6542 13.9849C16.6357 13.9849 16.6357 13.9849 16.6184 13.9849C16.5096 13.9661 16.4181 13.8532 16.4008 13.7404C16.4008 13.6651 16.3464 11.954 16.7631 10.017C17.3058 7.44081 18.4481 5.72952 20.0232 5.09011C20.9109 4.73282 21.7084 4.80812 22.3971 5.29706C24.4259 6.78258 24.625 11.5967 24.625 11.8035C24.625 11.9163 24.5347 11.9915 24.4259 11.9728C24.3171 11.954 24.2268 11.86 24.2083 11.7283C24.2083 11.6718 24.0092 6.95187 22.1795 5.59787C21.6355 5.20306 20.9654 5.14658 20.205 5.4474C16.6542 6.93305 16.8175 13.7404 16.8175 13.8156C16.8348 13.9096 16.763 13.9849 16.6542 13.9849Z" fill="#B2B2C2"/>
<path opacity="0.62" fill-rule="evenodd" clip-rule="evenodd" d="M18.1233 8.60712C18.268 8.32512 18.4126 8.04301 18.5399 7.74219C18.4855 7.83619 18.1232 8.81407 17.018 8.66359C16.9994 8.66359 17.6696 8.87041 18.1233 8.60712Z" fill="#595961"/>
<path opacity="0.62" fill-rule="evenodd" clip-rule="evenodd" d="M17.7255 9.81008C17.8343 9.50914 17.943 9.18949 18.016 8.88867C17.9801 9.00149 17.7984 10.0169 16.6387 10.0169C16.6387 10.0169 17.3088 10.1485 17.7255 9.81008Z" fill="#595961"/>
<path opacity="0.62" fill-rule="evenodd" clip-rule="evenodd" d="M24.0821 7.38464C23.9375 7.04605 23.7742 6.72641 23.611 6.38794C23.6654 6.50076 24.2094 7.57264 23.5938 8.34357C23.5938 8.34357 24.0648 7.96758 24.0821 7.38464Z" fill="#595961"/>
<path opacity="0.62" fill-rule="evenodd" clip-rule="evenodd" d="M23.0892 5.69232C22.7986 5.44785 22.5093 5.2222 22.2188 5.01538C22.3275 5.10938 23.2882 5.80514 23.2338 6.85832C23.2152 6.85832 23.3785 6.23773 23.0892 5.69232Z" fill="#595961"/>
<path opacity="0.62" fill-rule="evenodd" clip-rule="evenodd" d="M18.6489 7.57228C18.8665 7.34663 19.047 7.10216 19.246 6.83887C19.1743 6.91404 18.576 7.6851 17.5078 7.40298C17.5078 7.40298 18.1235 7.74157 18.6489 7.57228Z" fill="#595961"/>
<path opacity="0.62" fill-rule="evenodd" clip-rule="evenodd" d="M19.3188 6.70745C19.5723 6.51945 19.8072 6.33133 20.0433 6.12451C19.9531 6.18098 19.2101 6.80145 18.1777 6.35016C18.1777 6.35016 18.7749 6.78262 19.3188 6.70745Z" fill="#595961"/>
<path opacity="0.62" fill-rule="evenodd" clip-rule="evenodd" d="M20.297 6.0867C20.6049 5.9927 20.8954 5.87988 21.1847 5.76706C21.076 5.80458 20.1523 6.14305 19.2461 5.42847C19.2646 5.42847 19.7357 5.9927 20.297 6.0867Z" fill="#595961"/>
<path opacity="0.62" fill-rule="evenodd" clip-rule="evenodd" d="M21.1873 5.74857C21.4408 5.78622 21.6942 5.80504 21.9477 5.82387C21.8574 5.80504 21.0599 5.74857 20.6074 4.99634C20.6074 4.99634 20.7892 5.5041 21.1873 5.74857Z" fill="#595961"/>
<path opacity="0.62" fill-rule="evenodd" clip-rule="evenodd" d="M22.2377 6.16181C22.4182 6.36875 22.6184 6.57557 22.8348 6.76357C22.7631 6.6884 22.1474 6.06781 22.2921 5.29688C22.2735 5.29688 22.0745 5.72934 22.2377 6.16181Z" fill="#595961"/>
<path opacity="0.74" fill-rule="evenodd" clip-rule="evenodd" d="M24.4259 11.7097C24.4259 11.5028 24.2269 6.74518 22.2524 5.29731C21.8716 5.01519 21.455 4.88354 21.0198 4.88354C20.6934 4.88354 20.3497 4.95872 19.9874 5.10919C18.4111 5.72978 17.3058 7.40342 16.7631 9.96081C16.3464 11.8789 16.4008 13.5902 16.4008 13.6654C16.4008 13.7219 16.4552 13.7782 16.5096 13.7782H16.5269C16.5813 13.7782 16.6184 13.7407 16.6184 13.6842C16.6184 13.609 16.4366 6.74518 20.0777 5.27848C20.8751 4.95872 21.5638 5.01519 22.1436 5.44766C24.0266 6.82048 24.2269 11.6157 24.2269 11.6721C24.2269 11.7286 24.2813 11.7849 24.3357 11.7849C24.3357 11.7849 24.3356 11.7849 24.3529 11.7849C24.39 11.8037 24.4259 11.7661 24.4259 11.7097Z" fill="url(#paint0_linear_4872_3527)"/>
<path fill-rule="evenodd" clip-rule="evenodd" d="M24.7371 9.35938C24.3204 7.32845 23.6318 5.95564 22.6724 5.24105C22.147 4.86506 21.5844 4.69576 20.9688 4.73341C21.4583 4.77093 21.9108 4.94023 22.3275 5.24105C23.2881 5.93693 23.9768 7.32845 24.3934 9.35938C24.6828 10.7886 24.7371 12.0296 24.7371 12.0861C24.7371 12.3117 24.6283 12.481 24.4466 12.5374C24.4837 12.5562 24.5196 12.5562 24.5381 12.5562C24.846 12.5938 25.0808 12.3869 25.0635 12.0861C25.0808 12.0296 25.0264 10.8074 24.7371 9.35938Z" fill="url(#paint1_linear_4872_3527)"/>
<path fill-rule="evenodd" clip-rule="evenodd" d="M20.1722 6.03079C16.7661 7.40348 16.9292 14.004 16.9292 14.0792C16.9292 14.3049 16.8204 14.4742 16.6387 14.5305C16.6758 14.5493 16.6931 14.5493 16.7302 14.5493C16.7475 14.5493 16.7846 14.5493 16.8019 14.5493C17.0739 14.5493 17.2544 14.3425 17.2544 14.0792C17.2544 14.004 17.0925 7.42231 20.4973 6.04961C20.7335 5.95561 20.951 5.89914 21.1501 5.88032C20.8595 5.82397 20.5344 5.88032 20.1722 6.03079Z" fill="url(#paint2_linear_4872_3527)"/>
<path fill-rule="evenodd" clip-rule="evenodd" d="M25.3332 7.66628L9.97163 12.5931C9.97163 12.5931 9.32008 12.7812 9.15689 12.988C8.99369 13.1948 8.95782 13.7778 8.95782 13.7778L6.58398 32.7707L24.4096 36.2308L25.787 7.64746C25.5879 7.60981 25.3876 7.64746 25.3332 7.66628Z" fill="url(#paint3_linear_4872_3527)"/>
<path fill-rule="evenodd" clip-rule="evenodd" d="M30.6403 10.1111C30.6403 10.1111 30.6218 9.96063 30.5315 9.90428C30.4586 9.84781 30.3683 9.84781 30.3683 9.84781L27.8499 9.65981L26.0028 7.76053C25.9298 7.70406 25.8569 7.66653 25.7666 7.64771L24.3906 36.2311L34.0452 34.0685L30.6403 10.1111Z" fill="url(#paint4_linear_4872_3527)"/>
<path fill-rule="evenodd" clip-rule="evenodd" d="M18.9911 23.5377C18.7191 23.1616 18.3939 22.8231 18.0675 22.5222C17.7412 22.2213 17.3975 21.9769 17.0525 21.7512C16.8176 21.6008 16.6 21.4503 16.4183 21.2998C16.2378 21.1495 16.0931 20.999 15.9843 20.8673C15.8755 20.7169 15.7852 20.5852 15.7308 20.4349C15.6764 20.2844 15.6579 20.1339 15.6579 19.9835C15.6579 19.7766 15.7123 19.5698 15.7852 19.4005C15.857 19.2314 15.9843 19.0809 16.1104 18.9492C16.2563 18.8176 16.4183 18.7236 16.6186 18.6484C16.8176 18.5731 17.0525 18.5356 17.3059 18.5168C17.5779 18.4979 17.8499 18.5168 18.1034 18.5356C18.3568 18.5543 18.593 18.6108 18.8279 18.6671C19.0455 18.7236 19.2631 18.7988 19.4436 18.8741C19.6253 18.9492 19.8058 19.0244 19.9332 19.0997L21.1288 15.414C20.9482 15.32 20.7306 15.2258 20.4945 15.1695C20.2411 15.0942 19.969 15.0378 19.6612 15.0002C19.3533 14.9627 19.0269 14.9438 18.6832 14.9438C18.3395 14.9438 17.9773 14.9627 17.5965 15.019C16.7818 15.1318 16.056 15.3575 15.4045 15.696C14.7888 16.0157 14.2448 16.4294 13.7923 16.9371C13.3571 17.4261 13.0133 17.9902 12.7599 18.6296C12.5237 19.2502 12.3791 19.9459 12.3433 20.698C12.3247 21.1495 12.3606 21.5631 12.4694 21.9392C12.5596 22.3153 12.7055 22.6726 12.9045 23.0111C13.085 23.3496 13.3212 23.6505 13.5746 23.9325C13.8281 24.2146 14.1359 24.4779 14.4438 24.7224C14.6972 24.9104 14.9148 25.0984 15.0966 25.2677C15.2771 25.437 15.423 25.6061 15.5306 25.7943C15.6394 25.9634 15.7123 26.1327 15.7667 26.3207C15.8211 26.49 15.8396 26.678 15.8211 26.8661C15.8211 27.0541 15.7667 27.2421 15.6938 27.3926C15.6221 27.5431 15.5306 27.6935 15.3859 27.8064C15.2598 27.9192 15.0966 27.9944 14.9149 28.032C14.7344 28.0695 14.5168 28.0884 14.2806 28.0508C14.0099 28.0132 13.7378 27.938 13.4844 27.8251C13.2309 27.7311 12.9763 27.5994 12.7414 27.4678C12.5065 27.3363 12.2889 27.1858 12.1071 27.0541C11.9081 26.9225 11.7449 26.772 11.6188 26.6592L10.8027 29.4612C10.9301 29.6492 11.1106 29.8185 11.3097 29.9876C11.51 30.1569 11.7449 30.3261 12.0169 30.4954C12.2889 30.6459 12.5782 30.7962 12.886 30.9279C13.1939 31.0595 13.5388 31.1723 13.8825 31.2665H13.9011H13.9183H13.9369H13.9555C14.6973 31.4356 15.4045 31.4733 16.0746 31.3793C16.7632 31.2852 17.3974 31.0407 17.9402 30.6647C18.5015 30.2698 18.9552 29.7432 19.2989 29.0474C19.6439 28.3517 19.8429 27.5054 19.8787 26.5464C19.8973 25.9446 19.8244 25.4181 19.6612 24.9292C19.498 24.3651 19.2631 23.9325 18.9911 23.5377Z" fill="url(#paint5_linear_4872_3527)"/>
<path opacity="0.226763" fill-rule="evenodd" clip-rule="evenodd" d="M10.921 29.6144C10.879 29.5645 10.8394 29.5136 10.8035 29.4613L11.6196 26.6593C11.6307 26.6698 11.6431 26.6806 11.6554 26.6917C11.7766 26.8 11.9275 26.9348 12.108 27.0543C12.2897 27.1859 12.5073 27.3364 12.7422 27.468C12.9771 27.5996 13.2317 27.7312 13.4852 27.8253C13.7386 27.9381 14.0107 28.0133 14.2814 28.051C14.5176 28.0885 14.7352 28.0698 14.9157 28.0321C15.0974 27.9945 15.2606 27.9193 15.3867 27.8065C15.5314 27.6937 15.6229 27.5432 15.6946 27.3927C15.7675 27.2423 15.8219 27.0543 15.8219 26.8663C15.8404 26.6781 15.8219 26.4902 15.7675 26.3209C15.7131 26.1329 15.6402 25.9636 15.5314 25.7944C15.4288 25.6156 15.2927 25.454 15.1234 25.293C15.2124 25.3935 15.2878 25.4968 15.3509 25.6063C15.4597 25.7756 15.5314 25.9447 15.5858 26.1329C15.6402 26.302 15.6587 26.4902 15.6402 26.6782C15.6402 26.8663 15.5858 27.0543 15.5141 27.2047C15.4412 27.3552 15.3509 27.5056 15.2062 27.6184C15.0789 27.7312 14.9157 27.8065 14.7352 27.844C14.5534 27.8817 14.3359 27.9005 14.1009 27.8629C13.829 27.8253 13.5569 27.75 13.3035 27.6372C13.05 27.5432 12.7966 27.4116 12.5604 27.2799C12.3255 27.1483 12.108 26.9979 11.9275 26.8663C11.7457 26.7468 11.5949 26.612 11.4737 26.5037C11.4613 26.4926 11.4502 26.4818 11.4378 26.4713L10.623 29.2732C10.7034 29.3929 10.8061 29.505 10.921 29.6144ZM13.5903 23.9497C13.5223 23.8824 13.4568 23.8142 13.3937 23.7446C13.1403 23.4625 12.9054 23.1617 12.7236 22.8232C12.5246 22.4846 12.3799 22.1273 12.2897 21.7514C12.1809 21.3752 12.1437 20.9615 12.1623 20.5102C12.1981 19.7579 12.3441 19.0622 12.579 18.4416C12.8324 17.8023 13.1774 17.2382 13.6114 16.7493C14.0651 16.2415 14.6078 15.8277 15.2235 15.5081C15.8763 15.1696 16.6008 14.944 17.4156 14.8312C17.7963 14.7747 18.1586 14.7559 18.5023 14.7559C18.8473 14.7559 19.1737 14.7747 19.4815 14.8123C19.7894 14.85 20.0614 14.9063 20.3148 14.9816C20.5497 15.038 20.7673 15.132 20.9491 15.226L20.9206 15.3139C20.7896 15.257 20.6462 15.2057 20.4953 15.1696C20.2419 15.0945 19.9699 15.038 19.662 15.0003C19.3542 14.9628 19.0277 14.944 18.684 14.944C18.3403 14.944 17.9781 14.9628 17.5973 15.0192C16.7826 15.132 16.0568 15.3576 15.4053 15.6962C14.7896 16.0159 14.2456 16.4295 13.7931 16.9373C13.3579 17.4262 13.0141 17.9903 12.7607 18.6297C12.5246 19.2503 12.3799 19.9461 12.3441 20.6982C12.3255 21.1496 12.3614 21.5632 12.4702 21.9394C12.5604 22.3155 12.7063 22.6728 12.9054 23.0112C13.0859 23.3497 13.322 23.6506 13.5754 23.9326C13.5804 23.9383 13.5854 23.9441 13.5903 23.9497ZM16.0506 20.9445C16.1495 21.0563 16.2732 21.1781 16.4191 21.2999C16.6008 21.4504 16.8184 21.6009 17.0533 21.7514C17.3983 21.977 17.742 22.2215 18.0684 22.5223C18.1636 22.6099 18.2575 22.7006 18.3515 22.7946C18.2007 22.6324 18.0436 22.479 17.8866 22.3343C17.5614 22.0334 17.2165 21.7889 16.8728 21.5632C16.6367 21.4128 16.4191 21.2624 16.2386 21.1119C16.1706 21.0558 16.1087 20.9997 16.0506 20.9445Z" fill="black"/>
<path opacity="0.41" fill-rule="evenodd" clip-rule="evenodd" d="M28.4698 30.9093L27.8541 9.65978L27.7453 9.54696L28.0359 30.6084C28.0359 30.6084 25.4816 34.6326 25.1008 34.5198C24.5395 34.3506 26.206 7.96732 26.206 7.96732L26.0243 7.77933C25.9526 7.72286 25.8611 7.68533 25.7894 7.6665L24.4307 35.8549L24.4121 36.2499L24.8831 35.6293L28.4698 30.9093Z" fill="url(#paint6_linear_4872_3527)"/>
<path fill-rule="evenodd" clip-rule="evenodd" d="M21.5291 8.88905C21.3127 9.77281 21.0407 10.6002 20.8417 11.108C20.7143 11.4089 20.859 11.6909 21.131 11.7286C21.4215 11.7662 21.7467 11.5593 21.8555 11.2585C21.874 11.202 22.3624 9.97975 22.6715 8.53176V8.51294L21.5291 8.88905Z" fill="url(#paint7_linear_4872_3527)"/>
<path fill-rule="evenodd" clip-rule="evenodd" d="M13.359 11.5215C13.1056 12.0856 12.8521 12.5745 12.6704 12.913C12.5084 13.1951 12.5986 13.4959 12.8706 13.5711C13.1414 13.6652 13.5036 13.4959 13.6668 13.2138C13.6854 13.1763 14.2109 12.2549 14.6819 11.0889L13.359 11.5215Z" fill="url(#paint8_linear_4872_3527)"/>
<path opacity="0.32" fill-rule="evenodd" clip-rule="evenodd" d="M24.4121 36.2308L28.4698 30.9089L34.0865 34.0682L24.4121 36.2308Z" fill="url(#paint9_linear_4872_3527)"/>
<path opacity="0.19" fill-rule="evenodd" clip-rule="evenodd" d="M24.4121 36.2308L28.4339 30.9089L34.0865 34.0682L24.4121 36.2308Z" fill="url(#paint10_linear_4872_3527)"/>
<path opacity="0.19" fill-rule="evenodd" clip-rule="evenodd" d="M24.4121 36.2308L28.4339 30.9089L34.0865 34.0682L24.4121 36.2308Z" fill="url(#paint11_linear_4872_3527)"/>
<path opacity="0.6" fill-rule="evenodd" clip-rule="evenodd" d="M20.4621 21.3378C22.5639 24.2902 23.9769 27.487 24.6829 30.5898L25.7882 7.62909C25.5892 7.59157 25.3889 7.62909 25.3345 7.64792L9.97293 12.5937C9.97293 12.5937 9.82823 12.6312 9.64648 12.7065C13.5422 14.098 17.4368 17.088 20.4621 21.3378Z" fill="url(#paint12_linear_4872_3527)"/>
<path fill-rule="evenodd" clip-rule="evenodd" d="M30.5524 9.92311C30.6439 9.9984 30.644 10.1112 30.644 10.1112L34.013 34.0497L28.4692 30.8905L27.8535 9.64111L30.3361 9.82911C30.3534 9.84793 30.4622 9.84793 30.5524 9.92311Z" fill="url(#paint13_linear_4872_3527)"/>
<path fill-rule="evenodd" clip-rule="evenodd" d="M30.1514 9.97977C30.1514 9.97977 30.2603 9.97977 30.3505 10.0738C30.4408 10.1491 30.4592 10.2619 30.4592 10.2619L33.7751 33.9372L34.0286 34.0877L30.6583 10.1302C30.6583 10.1302 30.641 10.0174 30.5681 9.94225C30.4778 9.86695 30.3505 9.86695 30.3505 9.86695L27.8691 9.67896L30.1514 9.97977Z" fill="url(#paint14_linear_4872_3527)"/>
<path fill-rule="evenodd" clip-rule="evenodd" d="M6.58398 32.7706L24.4096 36.2307L25.28 16.636L8.80071 17.1044L6.58398 32.7706Z" fill="url(#paint15_linear_4872_3527)"/>
<path opacity="0.3" fill-rule="evenodd" clip-rule="evenodd" d="M12.4344 12.8673C12.2724 13.3244 12.4319 13.8046 12.7929 13.9402C13.1527 14.0757 13.5755 13.8151 13.7387 13.3581C13.9007 12.9012 13.74 12.4208 13.3802 12.2854C13.0204 12.1498 12.5963 12.4104 12.4344 12.8673Z" fill="white"/>
<path opacity="0.89" fill-rule="evenodd" clip-rule="evenodd" d="M12.4146 12.6504C12.2527 13.1074 12.4134 13.5877 12.7732 13.7232C13.1329 13.8587 13.557 13.5982 13.719 13.1412C13.8809 12.6841 13.7215 12.2038 13.3605 12.0683C13.0007 11.9328 12.5778 12.1933 12.4146 12.6504Z" fill="black"/>
<path fill-rule="evenodd" clip-rule="evenodd" d="M27.8727 9.65981L26.0243 7.76053C25.9526 7.70406 25.8611 7.66653 25.7894 7.64771L24.4121 36.2311L28.4883 30.8904L27.8727 9.65981Z" fill="url(#paint16_linear_4872_3527)"/>
<path fill-rule="evenodd" clip-rule="evenodd" d="M25.3333 7.66703L9.97176 12.5938C9.97176 12.5938 9.32021 12.782 9.15701 12.9888C9.13847 13.0076 9.1384 13.0264 9.12109 13.0452L24.6088 8.60726C24.7362 8.56961 25.044 8.45679 25.0082 9.3782L24.0661 36.1939L24.3925 36.2504L25.7685 7.66703C25.588 7.61056 25.3877 7.64821 25.3333 7.66703Z" fill="url(#paint17_linear_4872_3527)"/>
<path fill-rule="evenodd" clip-rule="evenodd" d="M25.3333 7.66703L9.97176 12.5938C9.97176 12.5938 9.32021 12.782 9.15701 12.9888C9.13847 13.0076 9.1384 13.0264 9.12109 13.0452L12.7077 12.0109L25.044 8.04315C25.0984 8.02432 25.2975 7.98668 25.4966 8.02433L24.1378 36.1939L24.3925 36.2504L25.7685 7.66703C25.588 7.61056 25.3877 7.64821 25.3333 7.66703Z" fill="url(#paint18_linear_4872_3527)"/>
<path opacity="0.32" fill-rule="evenodd" clip-rule="evenodd" d="M29.2816 31.3607L28.4656 30.8906L24.3906 36.2312L24.607 36.1747C24.607 36.1747 28.1948 31.3796 28.52 31.2291C28.7561 31.1351 29.2816 31.3607 29.2816 31.3607Z" fill="url(#paint19_linear_4872_3527)"/>
<path opacity="0.57" fill-rule="evenodd" clip-rule="evenodd" d="M24.4121 36.2312L28.4883 30.8906C28.4698 30.9094 25.8982 33.8241 24.4121 36.2312Z" fill="url(#paint20_linear_4872_3527)"/>
<path opacity="0.46" fill-rule="evenodd" clip-rule="evenodd" d="M34.0829 34.0682L28.4848 30.9089C28.4662 30.9089 29.119 31.0218 34.0829 34.0682Z" fill="url(#paint21_linear_4872_3527)"/>
<path opacity="0.3" fill-rule="evenodd" clip-rule="evenodd" d="M20.7181 10.992C20.5549 11.4491 20.7156 11.9295 21.0754 12.065C21.4364 12.2006 21.8593 11.94 22.0212 11.4831C22.1844 11.026 22.0237 10.5457 21.6639 10.4101C21.3042 10.2746 20.8801 10.5351 20.7181 10.992Z" fill="white"/>
<path opacity="0.89" fill-rule="evenodd" clip-rule="evenodd" d="M20.6978 10.776C20.5359 11.2331 20.6966 11.7134 21.0564 11.849C21.4162 11.9845 21.8402 11.724 22.0022 11.2669C22.1641 10.81 22.0046 10.3297 21.6449 10.1941C21.2839 10.0585 20.861 10.3191 20.6978 10.776Z" fill="black"/>
<path fill-rule="evenodd" clip-rule="evenodd" d="M13.0687 13.5714C13.0501 13.5714 13.0142 13.5714 12.9957 13.5714C12.7064 13.5338 12.5074 13.2517 12.5432 12.9321C12.5791 12.6311 13.6114 5.59811 17.8508 3.99977C18.919 3.60483 19.8253 3.68001 20.5139 4.26307C21.3472 4.95883 21.7997 6.35035 21.8726 8.38128C21.927 9.81045 21.7639 11.0515 21.7639 11.108C21.7281 11.4088 21.456 11.6346 21.1655 11.5781C20.8762 11.5404 20.6586 11.2584 20.713 10.9575C20.8762 9.6788 21.0567 6.16235 19.8438 5.14682C19.463 4.82718 18.9376 4.78953 18.2317 5.05282C14.5906 6.42552 13.6299 13.0261 13.6299 13.0824C13.557 13.3645 13.3407 13.5714 13.0687 13.5714Z" fill="#595961"/>
<path opacity="0.46" fill-rule="evenodd" clip-rule="evenodd" d="M20.2974 4.30036C19.6632 3.7739 18.8299 3.69872 17.8334 4.05602C16.1124 4.71413 14.6634 6.44412 13.6669 9.05799C12.9251 10.9949 12.6704 12.7437 12.6704 12.819C12.6531 12.913 12.689 13.007 12.7434 13.0823C12.7978 13.1575 12.8707 13.214 12.9609 13.214C12.9782 13.214 12.9968 13.214 13.0153 13.214C13.1785 13.214 13.3232 13.0823 13.3417 12.913C13.359 12.8379 14.3197 6.12447 18.0695 4.71413C18.8299 4.43201 19.4455 4.46966 19.8807 4.84578C21.1665 5.91766 20.9861 9.54693 20.8229 10.8444C20.8043 11.0326 20.9317 11.2206 21.1122 11.2394C21.2939 11.2582 21.4744 11.1266 21.4929 10.9386C21.5115 10.7316 22.1458 5.84248 20.2974 4.30036Z" fill="#B2B2C2"/>
<path opacity="0.81" fill-rule="evenodd" clip-rule="evenodd" d="M12.9949 13.0074C12.9764 13.0074 12.9764 13.0074 12.9591 13.0074C12.8503 12.9885 12.7773 12.8757 12.7958 12.7629C12.8144 12.6876 13.0493 10.9764 13.7924 9.03949C14.7889 6.46327 16.202 4.75198 17.8859 4.11257C18.8465 3.75528 19.6254 3.83058 20.2226 4.31952C21.998 5.80504 21.3823 10.6191 21.3464 10.826C21.3279 10.9388 21.2377 11.0139 21.1103 10.9952C21.0028 10.9764 20.9298 10.8824 20.9298 10.7508C20.9298 10.6943 21.5455 5.97433 19.9518 4.62034C19.4808 4.26304 18.828 4.22552 18.0318 4.52634C14.209 5.97433 13.2125 12.7629 13.2125 12.8381C13.194 12.9321 13.1037 13.0074 12.9949 13.0074Z" fill="#B2B2C2"/>
<path opacity="0.42" fill-rule="evenodd" clip-rule="evenodd" d="M15.3886 7.62885C15.5877 7.34685 15.7694 7.06474 15.9499 6.76392C15.8782 6.85791 15.3528 7.83579 14.266 7.68532C14.2475 7.68532 14.8817 7.89214 15.3886 7.62885Z" fill="#595961"/>
<path opacity="0.42" fill-rule="evenodd" clip-rule="evenodd" d="M14.7714 8.8323C14.9346 8.53135 15.0977 8.21171 15.2238 7.91089C15.1694 8.02371 14.8072 9.03912 13.666 9.03912C13.666 9.03912 14.3003 9.17076 14.7714 8.8323Z" fill="#595961"/>
<path opacity="0.42" fill-rule="evenodd" clip-rule="evenodd" d="M14.3035 10.0736C14.4482 9.75379 14.557 9.43415 14.6658 9.1145C14.6114 9.22732 14.4123 10.2616 13.2168 10.3932C13.2168 10.3744 13.8683 10.4497 14.3035 10.0736Z" fill="#595961"/>
<path opacity="0.62" fill-rule="evenodd" clip-rule="evenodd" d="M21.55 6.40661C21.4597 6.06802 21.3694 5.74838 21.2421 5.40991C21.2779 5.52273 21.6402 6.59461 20.8984 7.36555C20.8984 7.36555 21.4412 6.98955 21.55 6.40661Z" fill="#595961"/>
<path opacity="0.62" fill-rule="evenodd" clip-rule="evenodd" d="M20.8417 4.71404C20.5883 4.46957 20.3335 4.24393 20.0801 4.03711C20.1716 4.13111 21.0222 4.82687 20.7873 5.87992C20.7687 5.87992 21.0408 5.25933 20.8417 4.71404Z" fill="#595961"/>
<path opacity="0.62" fill-rule="evenodd" clip-rule="evenodd" d="M21.73 8.13689C21.7115 7.79842 21.6571 7.44113 21.6027 7.10254C21.6027 7.23419 21.7844 8.34371 20.9141 8.94547C20.9141 8.94547 21.5124 8.68218 21.73 8.13689Z" fill="#595961"/>
<path opacity="0.62" fill-rule="evenodd" clip-rule="evenodd" d="M21.8203 9.90459C21.8389 9.56612 21.8389 9.20883 21.8203 8.87036C21.8203 9.00201 21.8388 10.1115 20.9141 10.6192C20.9141 10.6005 21.5483 10.4124 21.8203 9.90459Z" fill="#595961"/>
<path opacity="0.42" fill-rule="evenodd" clip-rule="evenodd" d="M13.8848 11.4462C13.9936 11.1077 14.0666 10.7692 14.1383 10.4495C14.1025 10.5623 13.9393 11.6342 12.834 11.8975C12.8525 11.8975 13.5041 11.8786 13.8848 11.4462Z" fill="#595961"/>
<path opacity="0.42" fill-rule="evenodd" clip-rule="evenodd" d="M16.0777 6.59425C16.3312 6.3686 16.5672 6.12413 16.7848 5.86084C16.6934 5.93601 15.9689 6.70707 14.9551 6.42495C14.9724 6.42495 15.5337 6.76354 16.0777 6.59425Z" fill="#595961"/>
<path opacity="0.42" fill-rule="evenodd" clip-rule="evenodd" d="M16.8924 5.72967C17.183 5.54167 17.455 5.35355 17.7257 5.14673C17.6182 5.2032 16.7849 5.82366 15.8242 5.37237C15.8242 5.37237 16.3311 5.80484 16.8924 5.72967Z" fill="#595961"/>
<path opacity="0.62" fill-rule="evenodd" clip-rule="evenodd" d="M17.9948 5.10916C18.3212 5.01504 18.6291 4.90222 18.9369 4.7894C18.8281 4.82705 17.8502 5.16551 17.0527 4.45093C17.0527 4.45093 17.4335 5.01504 17.9948 5.10916Z" fill="#595961"/>
<path opacity="0.62" fill-rule="evenodd" clip-rule="evenodd" d="M18.9213 4.77078C19.176 4.80843 19.4295 4.82726 19.6829 4.84608C19.5927 4.82726 18.8137 4.77079 18.4688 4.01855C18.4873 4.01855 18.5776 4.52631 18.9213 4.77078Z" fill="#595961"/>
<path opacity="0.62" fill-rule="evenodd" clip-rule="evenodd" d="M19.9011 5.18415C20.0643 5.39097 20.2263 5.59779 20.3895 5.78591C20.3351 5.71061 19.8282 5.09015 20.0816 4.31909C20.1002 4.31909 19.8282 4.75168 19.9011 5.18415Z" fill="#595961"/>
<path fill-rule="evenodd" clip-rule="evenodd" d="M21.1484 10.7316C21.1657 10.5248 21.7827 5.76715 20.0617 4.31916C19.7353 4.03717 19.3372 3.90552 18.902 3.90552C18.5756 3.90552 18.2134 3.98069 17.8326 4.13116C16.166 4.75175 14.7714 6.42539 13.7934 8.98278C13.0504 10.9009 12.8154 12.6122 12.7969 12.6874C12.7969 12.7437 12.8328 12.8002 12.8872 12.8002H12.9057C12.9601 12.8002 12.9959 12.7625 12.9959 12.7062C13.0145 12.6309 13.9924 5.76715 17.8869 4.30034C18.7202 3.98069 19.4274 4.03716 19.9343 4.46963C21.5824 5.84233 20.9667 10.6376 20.9494 10.6941C20.9494 10.7504 20.9853 10.8069 21.0397 10.8069C21.0397 10.8069 21.0396 10.8069 21.0569 10.8069C21.1113 10.8257 21.1484 10.7881 21.1484 10.7316Z" fill="url(#paint22_linear_4872_3527)"/>
<path fill-rule="evenodd" clip-rule="evenodd" d="M21.8752 8.38111C21.8022 6.35018 21.3497 4.97736 20.5164 4.26278C20.0639 3.88679 19.52 3.71749 18.9043 3.75514C19.3753 3.79266 19.8093 3.96196 20.1728 4.26278C21.0061 4.95866 21.4585 6.35018 21.5302 8.38111C21.5846 9.81028 21.4227 11.0513 21.4227 11.1078C21.3856 11.3335 21.241 11.5027 21.0592 11.5591C21.0963 11.5779 21.1136 11.5779 21.1507 11.5779C21.44 11.6156 21.712 11.4086 21.7479 11.1078C21.7664 11.0513 21.9296 9.82911 21.8752 8.38111Z" fill="url(#paint23_linear_4872_3527)"/>
<path fill-rule="evenodd" clip-rule="evenodd" d="M17.8682 5.05255C14.2272 6.42524 13.2666 13.0258 13.2666 13.101C13.2307 13.3266 13.0848 13.4959 12.9043 13.5523C12.9402 13.5711 12.9587 13.5711 12.9945 13.5711C13.0131 13.5711 13.049 13.5711 13.0675 13.5711C13.3395 13.5711 13.5559 13.3643 13.5929 13.101C13.6103 13.0258 14.5524 6.44407 18.1934 5.07125C18.4481 4.97725 18.6645 4.9209 18.8648 4.90208C18.5928 4.86443 18.2478 4.9209 17.8682 5.05255Z" fill="url(#paint24_linear_4872_3527)"/>
<defs>
<linearGradient id="paint0_linear_4872_3527" x1="17.3453" y1="4.92599" x2="16.7772" y2="12.6612" gradientUnits="userSpaceOnUse">
<stop stop-color="white" stop-opacity="0.65"/>
<stop offset="1" stop-color="white" stop-opacity="0.01"/>
</linearGradient>
<linearGradient id="paint1_linear_4872_3527" x1="21.5004" y1="9.35372" x2="25.5004" y2="12.8572" gradientUnits="userSpaceOnUse">
<stop stop-opacity="0.01"/>
<stop offset="1" stop-opacity="0.4"/>
</linearGradient>
<linearGradient id="paint2_linear_4872_3527" x1="19.8964" y1="13.4066" x2="24.1303" y2="9.46298" gradientUnits="userSpaceOnUse">
<stop stop-opacity="0.01"/>
<stop offset="1" stop-opacity="0.4"/>
</linearGradient>
<linearGradient id="paint3_linear_4872_3527" x1="14.5065" y1="1.89781" x2="-1.93829" y2="20.8458" gradientUnits="userSpaceOnUse">
<stop stop-color="#B8D26E"/>
<stop offset="1" stop-color="#7FB525"/>
</linearGradient>
<linearGradient id="paint4_linear_4872_3527" x1="37" y1="6.64177" x2="27.9748" y2="6.80937" gradientUnits="userSpaceOnUse">
<stop stop-color="#B4E034"/>
<stop offset="1" stop-color="#60A927"/>
</linearGradient>
<linearGradient id="paint5_linear_4872_3527" x1="10.1549" y1="19.2763" x2="2.75539" y2="37.2955" gradientUnits="userSpaceOnUse">
<stop stop-color="white"/>
<stop offset="1" stop-color="#CECEEB"/>
</linearGradient>
<linearGradient id="paint6_linear_4872_3527" x1="20.7686" y1="63.652" x2="32.4879" y2="63.6283" gradientUnits="userSpaceOnUse">
<stop stop-color="#1D1D1B" stop-opacity="0.5"/>
<stop offset="0.038033" stop-color="#1D1D1B" stop-opacity="0.4837"/>
<stop offset="0.4243" stop-color="#1D1D1B" stop-opacity="0.3185"/>
<stop offset="1" stop-color="#1D1D1B" stop-opacity="0.01"/>
</linearGradient>
<linearGradient id="paint7_linear_4872_3527" x1="22.1275" y1="7.25085" x2="20.1832" y2="8.29724" gradientUnits="userSpaceOnUse">
<stop stop-opacity="0.01"/>
<stop offset="1" stop-opacity="0.4"/>
</linearGradient>
<linearGradient id="paint8_linear_4872_3527" x1="13.9759" y1="10.3542" x2="12.6092" y2="11.5288" gradientUnits="userSpaceOnUse">
<stop stop-opacity="0.01"/>
<stop offset="1" stop-opacity="0.4"/>
</linearGradient>
<linearGradient id="paint9_linear_4872_3527" x1="27.3101" y1="34.0822" x2="27.4485" y2="35.9062" gradientUnits="userSpaceOnUse">
<stop stop-opacity="0.01"/>
<stop offset="1" stop-opacity="0.4"/>
</linearGradient>
<linearGradient id="paint10_linear_4872_3527" x1="24.0795" y1="31.412" x2="24.4003" y2="36.1542" gradientUnits="userSpaceOnUse">
<stop stop-color="white" stop-opacity="0.5"/>
<stop offset="0.0896271" stop-color="white" stop-opacity="0.4552"/>
<stop offset="1" stop-color="white" stop-opacity="0.01"/>
</linearGradient>
<linearGradient id="paint11_linear_4872_3527" x1="23.4626" y1="32.1496" x2="24.0332" y2="37.2153" gradientUnits="userSpaceOnUse">
<stop stop-opacity="0.01"/>
<stop offset="1" stop-opacity="0.4"/>
</linearGradient>
<linearGradient id="paint12_linear_4872_3527" x1="21.2224" y1="3.00496" x2="6.58752" y2="11.4692" gradientUnits="userSpaceOnUse">
<stop stop-color="white" stop-opacity="0.5"/>
<stop offset="1" stop-color="white" stop-opacity="0.01"/>
</linearGradient>
<linearGradient id="paint13_linear_4872_3527" x1="24.0468" y1="47.2418" x2="36.9641" y2="47.2679" gradientUnits="userSpaceOnUse">
<stop stop-color="#1D1D1B" stop-opacity="0.5"/>
<stop offset="0.0896271" stop-color="#1D1D1B" stop-opacity="0.4552"/>
<stop offset="1" stop-color="#1D1D1B" stop-opacity="0.01"/>
</linearGradient>
<linearGradient id="paint14_linear_4872_3527" x1="33.2942" y1="8.96634" x2="31.4593" y2="9.41596" gradientUnits="userSpaceOnUse">
<stop stop-color="white" stop-opacity="0.4"/>
<stop offset="1" stop-color="white" stop-opacity="0.01"/>
</linearGradient>
<linearGradient id="paint15_linear_4872_3527" x1="16.8321" y1="36.44" x2="17.7862" y2="31.8398" gradientUnits="userSpaceOnUse">
<stop stop-color="#1D1D1B" stop-opacity="0.5"/>
<stop offset="0.0896271" stop-color="#1D1D1B" stop-opacity="0.4552"/>
<stop offset="1" stop-color="#1D1D1B" stop-opacity="0.01"/>
</linearGradient>
<linearGradient id="paint16_linear_4872_3527" x1="22.3511" y1="63.0665" x2="34.1125" y2="63.0767" gradientUnits="userSpaceOnUse">
<stop stop-color="#1D1D1B" stop-opacity="0.5"/>
<stop offset="1" stop-color="#1D1D1B" stop-opacity="0.01"/>
</linearGradient>
<linearGradient id="paint17_linear_4872_3527" x1="11.6012" y1="6.00988" x2="5.89699" y2="27.9253" gradientUnits="userSpaceOnUse">
<stop stop-color="white" stop-opacity="0.5"/>
<stop offset="1" stop-color="white" stop-opacity="0.01"/>
</linearGradient>
<linearGradient id="paint18_linear_4872_3527" x1="11.6012" y1="6.00988" x2="5.89699" y2="27.9253" gradientUnits="userSpaceOnUse">
<stop stop-color="white" stop-opacity="0.5"/>
<stop offset="1" stop-color="white" stop-opacity="0.01"/>
</linearGradient>
<linearGradient id="paint19_linear_4872_3527" x1="25.4428" y1="28.9829" x2="20.9341" y2="35.1884" gradientUnits="userSpaceOnUse">
<stop stop-color="white" stop-opacity="0.5"/>
<stop offset="0.0896271" stop-color="white" stop-opacity="0.4552"/>
<stop offset="1" stop-color="white" stop-opacity="0.01"/>
</linearGradient>
<linearGradient id="paint20_linear_4872_3527" x1="26.8069" y1="30.4096" x2="26.3605" y2="31.4102" gradientUnits="userSpaceOnUse">
<stop stop-opacity="0.01"/>
<stop offset="1" stop-opacity="0.4"/>
</linearGradient>
<linearGradient id="paint21_linear_4872_3527" x1="31.2307" y1="31.7323" x2="31.2086" y2="32.0013" gradientUnits="userSpaceOnUse">
<stop stop-opacity="0.01"/>
<stop offset="1" stop-opacity="0.4"/>
</linearGradient>
<linearGradient id="paint22_linear_4872_3527" x1="14.9951" y1="3.2725" x2="13.046" y2="10.9725" gradientUnits="userSpaceOnUse">
<stop stop-color="white" stop-opacity="0.65"/>
<stop offset="1" stop-color="white" stop-opacity="0.01"/>
</linearGradient>
<linearGradient id="paint23_linear_4872_3527" x1="19.3593" y1="7.71439" x2="22.7499" y2="11.1615" gradientUnits="userSpaceOnUse">
<stop stop-opacity="0.01"/>
<stop offset="1" stop-opacity="0.4"/>
</linearGradient>
<linearGradient id="paint24_linear_4872_3527" x1="17.1883" y1="12.7906" x2="21.8729" y2="7.97947" gradientUnits="userSpaceOnUse">
<stop stop-opacity="0.01"/>
<stop offset="1" stop-opacity="0.4"/>
</linearGradient>
</defs>
</svg>
