<svg width="34" height="34" viewBox="0 0 34 34" fill="none" xmlns="http://www.w3.org/2000/svg">
<path d="M30.1233 15.7497C31.8491 15.7497 33.248 14.3507 33.248 12.625C33.248 10.8992 31.8489 9.50025 30.1232 9.50025C28.3973 9.50025 26.998 10.8994 26.998 12.6252V15.7497H30.1233ZM21.373 15.7497C23.0989 15.7497 24.498 14.3506 24.498 12.6247V3.87525C24.498 2.14936 23.0989 0.750244 21.373 0.750244C19.6472 0.750244 18.248 2.14935 18.248 3.87524V12.6247C18.248 14.3506 19.6472 15.7497 21.373 15.7497Z" fill="#2EB67D"/>
<path d="M3.87278 18.2503C2.14704 18.2503 0.74805 19.6493 0.74805 21.375C0.74805 23.1008 2.14717 24.4998 3.87291 24.4998C5.5988 24.4998 6.99805 23.1006 6.99805 21.3748V18.2503H3.87278ZM12.623 18.2503C10.8972 18.2503 9.49805 19.6494 9.49805 21.3753V30.1248C9.49805 31.8506 10.8972 33.2498 12.623 33.2498C14.3489 33.2498 15.748 31.8506 15.748 30.1248V21.3753C15.748 19.6494 14.3489 18.2503 12.623 18.2503Z" fill="#E01E5A"/>
<path d="M18.2486 30.1253C18.2486 31.851 19.6476 33.25 21.3733 33.25C23.0991 33.25 24.498 31.8509 24.498 30.1251C24.498 28.3992 23.0989 27 21.373 27L18.2486 27L18.2486 30.1253ZM18.2486 21.375C18.2486 23.1009 19.6477 24.5 21.3736 24.5L30.123 24.5C31.8489 24.5 33.248 23.1009 33.248 21.375C33.248 19.6491 31.8489 18.25 30.123 18.25L21.3736 18.25C19.6477 18.25 18.2486 19.6491 18.2486 21.375Z" fill="#ECB22E"/>
<path d="M15.7475 3.87473C15.7475 2.14899 14.3485 0.750001 12.6228 0.750001C10.897 0.75 9.49805 2.14912 9.49805 3.87486C9.49805 5.60076 10.8972 7 12.6231 7L15.7475 7L15.7475 3.87473ZM15.7475 12.625C15.7475 10.8991 14.3484 9.5 12.6225 9.5L3.87305 9.5C2.14716 9.5 0.748047 10.8991 0.748047 12.625C0.748047 14.3509 2.14716 15.75 3.87305 15.75L12.6225 15.75C14.3484 15.75 15.7475 14.3509 15.7475 12.625Z" fill="#36C5F0"/>
</svg>
