<svg xmlns="http://www.w3.org/2000/svg" width="206" height="37" viewBox="0 0 206 37"
     fill="none">
    <path
            d="M0.472656 31.0872C6.09015 31.0872 10.644 26.5333 10.644 20.9159C10.644 15.2984 6.09015 10.7445 0.472656 10.7445V17.8644C2.15789 17.8644 3.52404 19.2306 3.52404 20.9159C3.52404 22.6011 2.15789 23.9673 0.472656 23.9673V31.0872Z"
            fill="#E11D48"/>
    <path
            d="M34.3752 14.1346C32.6371 13.5839 30.7861 13.2869 28.8657 13.2869C18.801 13.2869 10.6421 21.446 10.6421 31.5105C10.6421 32.5207 10.7243 33.5118 10.8823 34.4772H22.2052C21.8011 33.571 21.5763 32.567 21.5763 31.5105C21.5763 27.4847 24.8399 24.2211 28.8657 24.2211C31.0661 24.2211 33.0386 25.196 34.3752 26.7374V14.1346Z"
            fill="#FDA4AF"/>
    <path
            d="M2.26367 0.572021C3.10695 8.20044 9.57438 14.1339 17.4276 14.1339C25.2807 14.1339 31.7482 8.20044 32.5914 0.572021H21.6804C21.0068 2.26065 19.3565 3.45389 17.4276 3.45389C15.4986 3.45389 13.8484 2.26065 13.1746 0.572021H2.26367Z"
            fill="#FB7185"/>
    <path
            d="M61.9842 9.04088H65.9849C68.2893 9.04088 69.5055 9.10489 70.6897 9.26492V4.9762C69.4735 5.13622 68.2893 5.20023 65.9849 5.20023H53.3107C51.4864 5.20023 50.1102 5.13622 48.958 4.9762V9.26492C50.0782 9.10489 51.4544 9.04088 53.3427 9.04088H57.6635V26.5158C57.6635 28.2441 57.5995 29.3323 57.4074 30.6765H62.2402C62.0482 29.3643 61.9842 28.2441 61.9842 26.5158V9.04088Z"
            fill="black"/>
    <path
            d="M73.1536 5.20023V9.26492H77.8584V5.20023H73.1536ZM73.1536 12.3054C73.3456 13.6177 73.4096 14.7058 73.4096 16.4661V26.5158C73.4096 28.1161 73.3456 29.2363 73.1536 30.6765H77.8264C77.6664 29.3323 77.6023 28.2441 77.6023 26.4838V16.4981C77.6023 14.5458 77.6664 13.4896 77.8264 12.3054H73.1536Z"
            fill="black"/>
    <path
            d="M86.4513 30.6765C86.2593 29.3003 86.1953 28.0841 86.1953 26.5158V20.0507C87.6035 16.8822 89.4919 15.2819 91.7962 15.2819C93.0124 15.2819 93.9726 15.762 94.4847 16.5942C94.8688 17.2023 95.0288 18.0664 95.0288 19.4106V26.5158C95.0288 28.1481 94.9648 29.2363 94.8047 30.6765H99.4455C99.2535 29.4923 99.1895 28.2761 99.1895 26.5158V18.8345C99.1895 16.6902 98.8694 15.41 98.1013 14.3538C96.9491 12.7855 95.1248 11.9854 92.6604 11.9854C89.7799 11.9854 88.0836 12.8815 86.1313 15.378C86.1953 14.5778 86.1953 14.4818 86.1953 14.0017V12.3054H81.8426C82.0346 13.6177 82.0986 14.7058 82.0986 16.4661V26.5158C82.0986 28.3081 82.0346 29.3003 81.8426 30.6765H86.4513Z"
            fill="black"/>
    <path
            d="M109.49 29.3963L108.402 31.8607C107.954 32.8529 107.026 33.461 105.906 33.461C105.17 33.461 104.562 33.301 103.665 32.9169L102.929 36.5655C104.402 36.8536 105.33 36.9496 106.29 36.9496C109.266 36.9496 111.155 35.8294 112.179 33.397L119.476 16.2741C120.436 14.0337 121.012 12.7215 121.204 12.3054H116.436C116.244 13.3296 115.988 14.1297 115.219 16.0821L111.667 25.1396L107.762 16.0501C107.186 14.7378 106.706 13.2336 106.546 12.3054H101.681C102.065 13.0096 102.097 13.1056 103.505 16.2741L109.49 29.3963Z"
            fill="black"/>
    <path
            d="M123.091 33.621C125.267 36.0854 127.379 36.9496 131.124 36.9496C134.42 36.9496 137.077 36.2135 138.677 34.9012C140.533 33.333 141.366 30.8686 141.366 27.0279V16.3061C141.366 14.5778 141.43 13.6817 141.59 12.3054H137.301V13.7777C137.301 14.1297 137.301 14.1938 137.365 14.8339C135.989 12.8815 134.1 12.0174 131.252 12.0174C126.067 12.0174 122.706 15.602 122.706 21.1389C122.706 26.6118 125.971 30.1004 131.06 30.1004C133.844 30.1004 135.733 29.2043 137.333 27.1879C137.269 29.3643 137.045 30.4845 136.501 31.4447C135.605 32.9809 133.716 33.8451 131.252 33.8451C128.948 33.8451 127.539 33.141 126.291 31.4127L123.091 33.621ZM126.899 21.2349C126.899 17.4263 128.883 15.0259 132.084 15.0259C133.236 15.0259 134.292 15.442 135.189 16.1781C136.469 17.2663 137.109 18.8665 137.109 20.9149C137.109 22.3871 136.821 23.5713 136.213 24.5635C135.317 26.0678 133.524 27.0919 131.764 27.0919C130.548 27.0919 129.172 26.5158 128.371 25.6517C127.411 24.6915 126.899 23.1233 126.899 21.2349Z"
            fill="black"/>
    <path
            d="M154.436 31.2846C160.133 31.2846 163.878 27.38 163.878 21.459C163.878 15.538 160.197 11.7613 154.404 11.7613C148.579 11.7613 144.866 15.57 144.866 21.523C144.866 27.508 148.579 31.2846 154.436 31.2846ZM154.404 15.0899C157.797 15.0899 159.749 17.4583 159.749 21.587C159.749 25.4917 157.701 27.8921 154.372 27.8921C151.043 27.8921 148.995 25.4597 148.995 21.523C148.995 17.5223 151.043 15.0899 154.404 15.0899Z"
            fill="black"/>
    <path
            d="M171.684 30.6765C171.492 29.3003 171.428 28.0841 171.428 26.5158V20.0507C172.837 16.8822 174.725 15.2819 177.029 15.2819C178.246 15.2819 179.206 15.762 179.718 16.5942C180.102 17.2023 180.262 18.0664 180.262 19.4106V26.5158C180.262 28.1481 180.198 29.2363 180.038 30.6765H184.679C184.487 29.4923 184.423 28.2761 184.423 26.5158V18.8345C184.423 16.6902 184.103 15.41 183.334 14.3538C182.182 12.7855 180.358 11.9854 177.894 11.9854C175.013 11.9854 173.317 12.8815 171.364 15.378C171.428 14.5778 171.428 14.4818 171.428 14.0017V12.3054H167.076C167.268 13.6177 167.332 14.7058 167.332 16.4661V26.5158C167.332 28.3081 167.268 29.3003 167.076 30.6765H171.684Z"
            fill="black"/>
    <path
            d="M205.829 22.5472C205.765 21.811 205.765 21.715 205.765 21.651C205.669 19.4746 205.445 18.3224 204.837 16.7862C203.557 13.5857 200.613 11.7293 196.868 11.7293C191.395 11.7293 187.842 15.602 187.842 21.523C187.842 27.508 191.427 31.2846 197.092 31.2846C199.78 31.2846 202.021 30.4525 203.685 28.8202C204.485 28.0201 204.901 27.412 205.637 25.8757L201.861 24.6595C201.541 25.5237 201.317 25.8757 200.933 26.3238C200.005 27.348 198.66 27.9241 197.092 27.9241C195.46 27.9241 194.019 27.284 193.091 26.1318C192.355 25.2036 192.067 24.3075 191.907 22.5472H205.829ZM192.003 19.3786C192.483 16.6902 194.308 15.0259 196.804 15.0259C198.308 15.0259 199.396 15.442 200.261 16.3061C201.061 17.1062 201.445 17.9704 201.669 19.3786H192.003Z"
            fill="black"/>
</svg>
