<svg width="197" height="48" viewBox="0 0 197 48" fill="none" xmlns="http://www.w3.org/2000/svg">
<path d="M67.4923 35.249L60.3823 11.1411H67.6806L70.9766 25.9731H71.165L75.0731 11.1411H80.8176L84.7257 26.0202H84.9141L88.2101 11.1411H95.5084L88.3984 35.249H82.136L78.0395 21.7825H77.8512L73.7547 35.249H67.4923Z" fill="white"/>
<path d="M100.655 35.5316C99.5019 35.5316 98.4817 35.3432 97.5949 34.9665C96.7159 34.582 96.0253 34.0013 95.5231 33.2243C95.0209 32.4474 94.7697 31.4586 94.7697 30.2579C94.7697 29.2691 94.9384 28.4255 95.2759 27.7271C95.6133 27.0208 96.0842 26.444 96.6885 25.9967C97.2927 25.5493 97.9951 25.208 98.7956 24.9725C99.6039 24.7371 100.475 24.5841 101.409 24.5135C102.421 24.435 103.233 24.3408 103.846 24.2309C104.465 24.1132 104.913 23.9523 105.187 23.7483C105.462 23.5364 105.599 23.2578 105.599 22.9125V22.8655C105.599 22.3946 105.419 22.0336 105.058 21.7825C104.697 21.5314 104.234 21.4058 103.669 21.4058C103.049 21.4058 102.543 21.5431 102.15 21.8178C101.766 22.0846 101.534 22.4966 101.456 23.0538H95.476C95.5545 21.9551 95.9037 20.9428 96.5237 20.0168C97.1515 19.0829 98.0657 18.3374 99.2664 17.7802C100.467 17.2151 101.966 16.9326 103.763 16.9326C105.058 16.9326 106.219 17.0857 107.247 17.3917C108.276 17.6899 109.151 18.1098 109.873 18.6513C110.595 19.1849 111.144 19.8127 111.521 20.5347C111.905 21.2488 112.097 22.0258 112.097 22.8655V35.249H106.023V32.7064H105.882C105.521 33.3813 105.082 33.9267 104.564 34.3426C104.053 34.7586 103.469 35.0607 102.81 35.249C102.158 35.4374 101.44 35.5316 100.655 35.5316ZM102.774 31.4351C103.269 31.4351 103.732 31.3331 104.163 31.129C104.603 30.925 104.96 30.6307 105.235 30.2462C105.509 29.8616 105.647 29.3947 105.647 28.8454V27.3386C105.474 27.4092 105.289 27.4759 105.093 27.5387C104.905 27.6015 104.701 27.6604 104.481 27.7153C104.269 27.7702 104.042 27.8212 103.798 27.8683C103.563 27.9154 103.316 27.9586 103.057 27.9978C102.555 28.0763 102.143 28.2058 101.821 28.3863C101.507 28.5589 101.271 28.7747 101.115 29.0337C100.965 29.2848 100.891 29.5673 100.891 29.8812C100.891 30.3835 101.067 30.768 101.421 31.0348C101.774 31.3017 102.225 31.4351 102.774 31.4351Z" fill="white"/>
<path d="M132.777 17.1681L126.703 35.249H119.169L113.095 17.1681H119.922L122.842 29.1279H123.03L125.949 17.1681H132.777Z" fill="white"/>
<path d="M142.738 35.5786C140.808 35.5786 139.144 35.2098 137.747 34.4721C136.358 33.7266 135.287 32.6593 134.534 31.2703C133.788 29.8734 133.415 28.2019 133.415 26.2556C133.415 24.3879 133.792 22.7556 134.546 21.3587C135.299 19.9618 136.362 18.8749 137.736 18.098C139.109 17.3211 140.729 16.9326 142.597 16.9326C143.963 16.9326 145.199 17.1445 146.305 17.5683C147.412 17.9921 148.357 18.6081 149.142 19.4164C149.927 20.2169 150.531 21.19 150.955 22.3357C151.379 23.4815 151.591 24.7724 151.591 26.2085V27.7153H135.44V24.1368H145.611C145.603 23.6188 145.469 23.1637 145.21 22.7713C144.959 22.371 144.618 22.0611 144.186 21.8413C143.763 21.6138 143.28 21.5 142.738 21.5C142.213 21.5 141.73 21.6138 141.291 21.8413C140.851 22.0611 140.498 22.3671 140.231 22.7595C139.972 23.1519 139.835 23.611 139.819 24.1368V27.9978C139.819 28.5785 139.941 29.0965 140.184 29.5516C140.427 30.0068 140.777 30.3639 141.232 30.6228C141.687 30.8818 142.236 31.0113 142.88 31.0113C143.327 31.0113 143.735 30.9485 144.104 30.823C144.481 30.6974 144.802 30.5169 145.069 30.2815C145.336 30.0382 145.532 29.7478 145.658 29.4104H151.591C151.387 30.666 150.904 31.7568 150.143 32.6829C149.382 33.601 148.373 34.3152 147.117 34.8253C145.87 35.3275 144.41 35.5786 142.738 35.5786Z" fill="white"/>
<path d="M154.242 35.249V17.1681H160.552V20.6053H160.74C161.07 19.334 161.591 18.4041 162.306 17.8155C163.028 17.2269 163.871 16.9326 164.836 16.9326C165.119 16.9326 165.398 16.9562 165.672 17.0033C165.955 17.0425 166.225 17.1014 166.484 17.1798V22.7242C166.163 22.6143 165.766 22.5319 165.296 22.477C164.825 22.4221 164.421 22.3946 164.083 22.3946C163.447 22.3946 162.875 22.5398 162.364 22.8301C161.862 23.1127 161.466 23.5129 161.176 24.0308C160.885 24.5409 160.74 25.1413 160.74 25.8319V35.249H154.242Z" fill="white"/>
<path d="M168.615 35.249V17.1681H175.113V35.249H168.615ZM171.864 15.2846C170.985 15.2846 170.232 14.9943 169.604 14.4135C168.976 13.8328 168.662 13.1344 168.662 12.3182C168.662 11.5021 168.976 10.8036 169.604 10.2229C170.232 9.64217 170.985 9.35181 171.864 9.35181C172.751 9.35181 173.504 9.64217 174.124 10.2229C174.752 10.8036 175.066 11.5021 175.066 12.3182C175.066 13.1344 174.752 13.8328 174.124 14.4135C173.504 14.9943 172.751 15.2846 171.864 15.2846Z" fill="white"/>
<path d="M187.135 35.5786C185.173 35.5786 183.493 35.1902 182.096 34.4133C180.699 33.6285 179.628 32.5377 178.883 31.1408C178.137 29.7361 177.764 28.1077 177.764 26.2556C177.764 24.4036 178.137 22.7791 178.883 21.3822C179.628 19.9775 180.699 18.8867 182.096 18.1098C183.493 17.325 185.173 16.9326 187.135 16.9326C189.096 16.9326 190.776 17.325 192.173 18.1098C193.57 18.8867 194.641 19.9775 195.386 21.3822C196.132 22.7791 196.505 24.4036 196.505 26.2556C196.505 28.1077 196.132 29.7361 195.386 31.1408C194.641 32.5377 193.57 33.6285 192.173 34.4133C190.776 35.1902 189.096 35.5786 187.135 35.5786ZM187.182 30.7759C187.731 30.7759 188.206 30.5915 188.606 30.2226C189.006 29.8538 189.316 29.328 189.536 28.6452C189.756 27.9625 189.866 27.1503 189.866 26.2085C189.866 25.259 189.756 24.4468 189.536 23.7719C189.316 23.0891 189.006 22.5633 188.606 22.1945C188.206 21.8256 187.731 21.6412 187.182 21.6412C186.601 21.6412 186.103 21.8256 185.687 22.1945C185.271 22.5633 184.953 23.0891 184.733 23.7719C184.513 24.4468 184.404 25.259 184.404 26.2085C184.404 27.1503 184.513 27.9625 184.733 28.6452C184.953 29.328 185.271 29.8538 185.687 30.2226C186.103 30.5915 186.601 30.7759 187.182 30.7759Z" fill="white"/>
<path fill-rule="evenodd" clip-rule="evenodd" d="M10.2526 4.31296C8.53761 5.51214 6.98678 6.92997 5.64052 8.52601C11.142 8.01526 18.1313 8.84926 26.246 12.9066C34.9113 17.2391 41.889 17.3856 46.7451 16.4489C46.3045 15.1148 45.7497 13.8326 45.0927 12.6137C39.5337 13.2001 32.4071 12.424 24.1016 8.27137C18.8276 5.63435 14.1786 4.54808 10.2526 4.31296ZM41.8453 7.99167C37.4554 3.08679 31.0757 0 23.975 0C21.8898 0 19.8665 0.266252 17.9377 0.766579C20.5501 1.47936 23.3252 2.52216 26.246 3.98258C32.3268 7.02293 37.5766 8.00187 41.8453 7.99167ZM47.7834 21.1317C41.9167 22.2902 33.8154 22.0523 24.1016 17.1954C15.0203 12.6547 7.79242 12.7119 2.91765 13.7952C2.66603 13.8511 2.42033 13.9098 2.18057 13.971C1.54234 15.359 1.03289 16.8186 0.667349 18.3343C1.05776 18.23 1.4612 18.1309 1.87744 18.0383C7.79139 16.7241 16.1473 16.7812 26.246 21.8306C35.3274 26.3712 42.5552 26.3141 47.4301 25.2307C47.5971 25.1937 47.7617 25.1553 47.9235 25.1158C47.9412 24.7378 47.9501 24.3575 47.9501 23.9751C47.9501 23.0131 47.8935 22.0642 47.7834 21.1317ZM47.1407 30.1754C41.331 31.1911 33.4656 30.8012 24.1016 26.1194C15.0203 21.5787 7.79242 21.6359 2.91765 22.7192C1.83559 22.9596 0.862191 23.2524 0.00351235 23.5616C0.00117118 23.6991 0 23.837 0 23.9751C0 37.2161 10.734 47.9501 23.975 47.9501C35.072 47.9501 44.4082 40.4111 47.1407 30.1754Z" fill="#7F57F1"/>
</svg>
