<svg width="40" height="40" viewBox="0 0 40 40" fill="none" xmlns="http://www.w3.org/2000/svg">
<path d="M20.691 35.5447C17.3979 35.5447 14.3246 34.5521 11.7572 32.8628L5.51475 34.8573L7.53828 28.8252C5.59125 26.1524 4.44614 22.8596 4.44614 19.309C4.44614 10.3561 11.7287 3.07356 20.6816 3.07356C29.6345 3.07356 36.917 10.3561 36.917 19.309C36.917 28.2616 29.6345 35.5444 20.6816 35.5444H20.691V35.5447ZM20.691 0C10.0292 0 1.38201 8.64798 1.38201 19.3093C1.38201 22.9552 2.39378 26.3722 4.14983 29.2834L0.666016 39.6395L11.3564 36.213C14.2138 37.793 17.4259 38.6207 20.691 38.6183C31.3526 38.6183 40 29.9708 40 19.3093C39.9997 8.64798 31.3526 0 20.691 0Z" fill="#FEFEFE"/>
<path d="M20.6905 3.07349C11.7376 3.07349 4.45508 10.356 4.45508 19.3089C4.45508 22.8595 5.60046 26.1524 7.54749 28.8251L5.52395 34.8572L11.7662 32.8627C14.3336 34.5617 17.3974 35.5446 20.6999 35.5446C29.6529 35.5446 36.9354 28.2618 36.9354 19.3092C36.9354 10.3563 29.6529 3.07376 20.6999 3.07376H20.6905V3.07349Z" fill="url(#paint0_linear_4872_3485)"/>
<path d="M16.1562 11.321C15.8413 10.567 15.6026 10.5385 15.1256 10.5191C14.9444 10.5074 14.7629 10.5011 14.5814 10.5002C13.9608 10.5002 13.3119 10.6815 12.9205 11.0824C12.4434 11.5691 11.2598 12.7048 11.2598 15.0338C11.2598 17.3628 12.9587 19.6153 13.1877 19.9305C13.4263 20.2451 16.4999 25.0938 21.2721 27.07C25.004 28.6162 26.1114 28.4729 26.9608 28.2916C28.2015 28.0244 29.7574 27.1077 30.1488 26.0008C30.5402 24.8934 30.5402 23.9485 30.4255 23.7481C30.311 23.5476 29.9958 23.4334 29.5187 23.1945C29.0417 22.9558 26.7221 21.8104 26.283 21.6577C25.8534 21.4956 25.4431 21.5529 25.1188 22.0111C24.6606 22.6506 24.2121 23.2998 23.8492 23.6909C23.5629 23.9964 23.095 24.0347 22.7038 23.8722C22.1788 23.653 20.7091 23.1371 18.8954 21.5241C17.4923 20.2739 16.5379 18.7183 16.2612 18.2507C15.9843 17.7736 16.2327 17.4964 16.4519 17.2389C16.6906 16.9429 16.9196 16.733 17.1582 16.4561C17.3969 16.1795 17.5305 16.0361 17.6833 15.7116C17.8457 15.3967 17.7309 15.0721 17.6165 14.8334C17.502 14.5947 16.5476 12.2657 16.1562 11.321Z" fill="#FEFEFE"/>
<defs>
<linearGradient id="paint0_linear_4872_3485" x1="-117.583" y1="-51.3218" x2="-117.583" y2="-50.1304" gradientUnits="userSpaceOnUse">
<stop stop-color="#6EBF61"/>
<stop offset="0.231" stop-color="#50A557"/>
<stop offset="0.522" stop-color="#2A904F"/>
<stop offset="0.812" stop-color="#50A557"/>
<stop offset="1" stop-color="#6EBF63"/>
</linearGradient>
</defs>
</svg>
