<svg width="41" height="40" viewBox="0 0 41 40" fill="none" xmlns="http://www.w3.org/2000/svg">
<g clip-path="url(#clip0_4872_3552)">
<path d="M25.334 20.0067C25.334 21.495 25.059 22.9167 24.5656 24.2317C23.2152 24.7407 21.7838 25.001 20.3407 25H20.3257C18.8831 25.0001 17.4524 24.7398 16.1023 24.2317C15.5935 22.8812 15.3332 21.4498 15.334 20.0067V19.9917C15.334 18.5033 15.6073 17.0833 16.1023 15.7683C17.4522 15.2596 18.8831 14.9993 20.3257 15H20.3407C21.829 15 23.254 15.2733 24.5656 15.77C25.0606 17.0833 25.334 18.505 25.334 19.995V20.0067ZM40.059 16.6667H28.384L36.6306 8.41333C35.3347 6.5905 33.7433 4.99691 31.9223 3.69833L23.6656 11.9467V0.275C22.5664 0.0951352 21.4545 0.00317732 20.3407 0L20.324 0C19.1907 0 18.0807 0.101667 16.999 0.275V11.95L8.74898 3.70167C6.92416 4.9972 5.32978 6.58989 4.03232 8.41333L12.2807 16.6667H0.608984C0.608984 16.6667 0.333984 18.86 0.333984 19.9917V20.0067C0.333984 21.14 0.435651 22.2533 0.608984 23.3317H12.284L4.03565 31.585C5.3308 33.4101 6.92354 35.0046 8.74732 36.3017L17.0007 28.0517V39.725C18.0976 39.9055 19.2073 39.9974 20.319 40H20.3473C21.479 40 22.5873 39.9 23.6656 39.725V28.0517L31.919 36.3017C32.8323 35.6767 33.6856 34.9483 34.4673 34.1517H34.4757C35.264 33.3767 35.9856 32.525 36.6357 31.6L28.3856 23.3517H40.059C40.234 22.2767 40.334 21.1783 40.334 20.0517V20C40.334 18.87 40.234 17.7617 40.059 16.6833" fill="#F74C1D"/>
</g>
<defs>
<clipPath id="clip0_4872_3552">
<rect width="40" height="40" fill="white" transform="translate(0.333984)"/>
</clipPath>
</defs>
</svg>
