<svg width="41" height="40" viewBox="0 0 41 40" fill="none" xmlns="http://www.w3.org/2000/svg">
<circle cx="20.334" cy="20" r="17.5" fill="#4087FC"/>
<path d="M10.6673 12.5C9.79287 12.5 9.08398 13.2995 9.08398 14.2857V22.9464C9.08398 25.4613 10.8916 27.5 13.1215 27.5L22.5007 27.4107C23.3751 27.4107 24.084 26.6113 24.084 25.625V16.875C24.084 14.3602 21.9388 12.5 19.709 12.5L10.6673 12.5Z" fill="white"/>
<path d="M26.2242 15.9095C25.6584 16.469 25.334 17.2764 25.334 18.125V21.7491C25.334 22.5978 25.6584 23.4052 26.2242 23.9647L29.745 27.0656C30.4614 27.7739 31.584 27.2002 31.584 26.1256V13.919C31.584 12.8444 30.4614 12.2707 29.745 12.979L26.2242 15.9095Z" fill="white"/>
</svg>
